<svg enable-background="new 0 0 283.178 283.178" version="1.1" viewBox="0 0 283.18 283.18" xml:space="preserve" xmlns="http://www.w3.org/2000/svg"><g><path d="m254.81 140.71h-20c-4.142 0-7.5 3.358-7.5 7.5v91.186c0 4.84-3.939 8.778-8.779 8.778h-174.76c-4.839 0-8.775-3.938-8.775-8.778v-174.75c0-4.841 3.936-8.78 8.775-8.78h95.855c4.142 0 7.5-3.358 7.5-7.5v-20c0-4.142-3.358-7.5-7.5-7.5h-95.855c-24.138 0-43.775 19.64-43.775 43.78v174.76c0 24.14 19.638 43.778 43.775 43.778h174.76c24.14 0 43.779-19.639 43.779-43.778v-91.186c1e-3 -4.143-3.357-7.501-7.499-7.501z"/><path d="m275.68 0h-79.553c-4.142 0-7.5 3.358-7.5 7.5v20c0 4.142 3.358 7.5 7.5 7.5h27.304l-102.74 102.74c-2.929 2.929-2.929 7.677 0 10.607l14.142 14.143c1.407 1.407 3.314 2.197 5.304 2.197 1.989 0 3.897-0.79 5.303-2.197l102.74-102.74v27.303c0 4.142 3.358 7.5 7.5 7.5h20c4.142 0 7.5-3.358 7.5-7.5v-79.551c0-4.142-3.358-7.5-7.5-7.5z"/></g></svg>
