<svg width="24" height="24" viewBox="0 0 24 24" fill="none" xmlns="http://www.w3.org/2000/svg">
    <path d="M21.596 11.9258H19.9009C19.5499 11.9258 19.2653 12.2104 19.2653 12.5614V20.2897C19.2653 20.6999 18.9314 21.0337 18.5212 21.0337H3.71006C3.29994 21.0337 2.96635 20.6999 2.96635 20.2897V5.47879C2.96635 5.06851 3.29994 4.73466 3.71006 4.73466H11.8341C12.1851 4.73466 12.4697 4.45006 12.4697 4.09902V2.40396C12.4697 2.05291 12.1851 1.76831 11.8341 1.76831H3.71006C1.66429 1.76831 0 3.43286 0 5.47879V20.2898C0 22.3357 1.66438 24.0001 3.71006 24.0001H18.5211C20.5671 24.0001 22.2315 22.3356 22.2315 20.2898V12.5615C22.2316 12.2104 21.947 11.9258 21.596 11.9258Z" fill="#8BBA15"/>
    <path d="M23.3644 0H16.622C16.271 0 15.9864 0.2846 15.9864 0.635647V2.33071C15.9864 2.68175 16.271 2.96635 16.622 2.96635H18.9361L10.2282 11.6741C9.97993 11.9224 9.97993 12.3248 10.2282 12.5731L11.4268 13.7718C11.546 13.891 11.7076 13.958 11.8763 13.958C12.0449 13.958 12.2066 13.891 12.3257 13.7718L21.0337 5.06382V7.37783C21.0337 7.72888 21.3183 8.01348 21.6693 8.01348H23.3644C23.7154 8.01348 24 7.72888 24 7.37783V0.635647C24 0.2846 23.7154 0 23.3644 0Z" fill="#8BBA15"/>
</svg>
