<?xml version="1.0" encoding="utf-8"?>
<!-- Generator: Adobe Illustrator 25.3.1, SVG Export Plug-In . SVG Version: 6.00 Build 0)  -->
<svg version="1.1" id="Layer_1" xmlns="http://www.w3.org/2000/svg" xmlns:xlink="http://www.w3.org/1999/xlink" x="0px" y="0px"
	 viewBox="0 0 1920 1080" style="enable-background:new 0 0 1920 1080;" xml:space="preserve">
<style type="text/css">
	.st0{fill-rule:evenodd;clip-rule:evenodd;fill:#78BE21;}
</style>
<g>
	<path class="st0" d="M0,43.2c1,0.6,1.8,1.4,2.4,2.4c1.8,3.2,0.7,7.2-2.4,9l0,0V43.2L0,43.2z M27.4,23.6c3.2-1.8,7.2-0.7,9,2.4
		c1.8,3.2,0.7,7.2-2.4,9c-3.2,1.8-7.2,0.7-9-2.4C23.1,29.4,24.2,25.4,27.4,23.6L27.4,23.6z M61.3,3.9c3.2-1.8,7.2-0.7,9,2.4
		c1.8,3.2,0.7,7.2-2.4,9c-3.2,1.8-7.2,0.7-9-2.4C57.1,9.8,58.2,5.8,61.3,3.9L61.3,3.9z M95.3-15.7c3.2-1.8,7.2-0.7,9,2.4
		s0.7,7.2-2.4,9s-7.2,0.7-9-2.4C91.1-9.8,92.2-13.8,95.3-15.7L95.3-15.7z M13,77.1c3.2-1.8,7.2-0.7,9,2.4c1.8,3.2,0.7,7.2-2.4,9
		c-3.2,1.8-7.2,0.7-9-2.4C8.8,83,9.9,78.9,13,77.1L13,77.1z M47,57.5c3.2-1.8,7.2-0.7,9,2.4c1.8,3.2,0.7,7.2-2.4,9
		c-3.2,1.8-7.2,0.7-9-2.4C42.8,63.4,43.8,59.3,47,57.5L47,57.5z M81,37.9c3.2-1.8,7.2-0.7,9,2.4c1.8,3.2,0.7,7.2-2.4,9
		c-3.2,1.8-7.2,0.7-9-2.4C76.7,43.8,77.8,39.7,81,37.9L81,37.9z M114.9,18.3c3.2-1.8,7.2-0.7,9,2.4s0.7,7.2-2.4,9s-7.2,0.7-9-2.4
		C110.7,24.2,111.8,20.1,114.9,18.3L114.9,18.3z M0,130.1c2.9-0.9,6.1,0.3,7.7,3c1.8,3.2,0.7,7.2-2.4,9c-1.7,1-3.6,1.1-5.3,0.6
		V130.1L0,130.1z M32.6,111.1c3.2-1.8,7.2-0.7,9,2.4c1.8,3.2,0.7,7.2-2.4,9c-3.2,1.8-7.2,0.7-9-2.4
		C28.4,116.9,29.5,112.9,32.6,111.1L32.6,111.1z M66.6,91.5c3.2-1.8,7.2-0.7,9,2.4c1.8,3.2,0.7,7.2-2.4,9c-3.2,1.8-7.2,0.7-9-2.4
		C62.4,97.3,63.4,93.3,66.6,91.5L66.6,91.5z M100.6,71.9c3.2-1.8,7.2-0.7,9,2.4c1.8,3.2,0.7,7.2-2.4,9c-3.2,1.8-7.2,0.7-9-2.4
		S97.4,73.7,100.6,71.9L100.6,71.9z M134.5,52.3c3.2-1.8,7.2-0.7,9,2.4c1.8,3.2,0.7,7.2-2.4,9c-3.2,1.8-7.2,0.7-9-2.4
		C130.3,58.1,131.4,54.1,134.5,52.3L134.5,52.3z M18.3,164.7c3.2-1.8,7.2-0.7,9,2.4c1.8,3.2,0.7,7.2-2.4,9c-3.2,1.8-7.2,0.7-9-2.4
		S15.1,166.5,18.3,164.7L18.3,164.7z M52.2,145.1c3.2-1.8,7.2-0.7,9,2.4c1.8,3.2,0.7,7.2-2.4,9c-3.2,1.8-7.2,0.7-9-2.4
		C48,150.9,49.1,146.9,52.2,145.1L52.2,145.1z M86.2,125.5c3.2-1.8,7.2-0.7,9,2.4s0.7,7.2-2.4,9c-3.2,1.8-7.2,0.7-9-2.4
		C82,131.3,83.1,127.3,86.2,125.5L86.2,125.5z M120.2,105.8c3.2-1.8,7.2-0.7,9,2.4c1.8,3.2,0.7,7.2-2.4,9s-7.2,0.7-9-2.4
		C115.9,111.7,117,107.7,120.2,105.8L120.2,105.8z M154.1,86.2c3.2-1.8,7.2-0.7,9,2.4c1.8,3.2,0.7,7.2-2.4,9c-3.2,1.8-7.2,0.7-9-2.4
		C149.9,92.1,151,88.1,154.1,86.2L154.1,86.2z M3.9,218.2c3.2-1.8,7.2-0.7,9,2.4c1.8,3.2,0.7,7.2-2.4,9c-3.2,1.8-7.2,0.7-9-2.4
		C-0.3,224.1,0.8,220.1,3.9,218.2L3.9,218.2z M37.9,198.6c3.2-1.8,7.2-0.7,9,2.4s0.7,7.2-2.4,9c-3.2,1.8-7.2,0.7-9-2.4
		S34.7,200.5,37.9,198.6L37.9,198.6z M71.9,179c3.2-1.8,7.2-0.7,9,2.4s0.7,7.2-2.4,9c-3.2,1.8-7.2,0.7-9-2.4
		C67.6,184.9,68.7,180.8,71.9,179L71.9,179z M105.8,159.4c3.2-1.8,7.2-0.7,9,2.4c1.8,3.2,0.7,7.2-2.4,9c-3.2,1.8-7.2,0.7-9-2.4
		C101.6,165.3,102.7,161.2,105.8,159.4L105.8,159.4z M139.8,139.8c3.2-1.8,7.2-0.7,9,2.4c1.8,3.2,0.7,7.2-2.4,9
		c-3.2,1.8-7.2,0.7-9-2.4C135.5,145.7,136.6,141.6,139.8,139.8L139.8,139.8z M173.7,120.2c3.2-1.8,7.2-0.7,9,2.4
		c1.8,3.2,0.7,7.2-2.4,9c-3.2,1.8-7.2,0.7-9-2.4C169.5,126,170.6,122,173.7,120.2L173.7,120.2z M23.5,252.2c3.2-1.8,7.2-0.7,9,2.4
		c1.8,3.2,0.7,7.2-2.4,9c-3.2,1.8-7.2,0.7-9-2.4C19.3,258.1,20.4,254,23.5,252.2L23.5,252.2z M57.5,232.6c3.2-1.8,7.2-0.7,9,2.4
		c1.8,3.2,0.7,7.2-2.4,9c-3.2,1.8-7.2,0.7-9-2.4C53.3,238.5,54.3,234.4,57.5,232.6L57.5,232.6z M91.5,213c3.2-1.8,7.2-0.7,9,2.4
		c1.8,3.2,0.7,7.2-2.4,9c-3.2,1.8-7.2,0.7-9-2.4C87.2,218.8,88.3,214.8,91.5,213L91.5,213z M125.4,193.4c3.2-1.8,7.2-0.7,9,2.4
		c1.8,3.2,0.7,7.2-2.4,9c-3.2,1.8-7.2,0.7-9-2.4C121.2,199.2,122.3,195.2,125.4,193.4L125.4,193.4z M159.4,173.8
		c3.2-1.8,7.2-0.7,9,2.4c1.8,3.2,0.7,7.2-2.4,9c-3.2,1.8-7.2,0.7-9-2.4C155.2,179.6,156.2,175.6,159.4,173.8L159.4,173.8z
		 M193.4,154.2c3.2-1.8,7.2-0.7,9,2.4c1.8,3.2,0.7,7.2-2.4,9c-3.2,1.8-7.2,0.7-9-2.4C189.1,160,190.2,156,193.4,154.2L193.4,154.2z
		 M9.2,305.8c3.2-1.8,7.2-0.7,9,2.4c1.8,3.2,0.7,7.2-2.4,9s-7.2,0.7-9-2.4C4.9,311.6,6,307.6,9.2,305.8L9.2,305.8z M43.1,286.2
		c3.2-1.8,7.2-0.7,9,2.4c1.8,3.2,0.7,7.2-2.4,9c-3.2,1.8-7.2,0.7-9-2.4C38.9,292,40,288,43.1,286.2L43.1,286.2z M77.1,266.6
		c3.2-1.8,7.2-0.7,9,2.4c1.8,3.2,0.7,7.2-2.4,9c-3.2,1.8-7.2,0.7-9-2.4C72.9,272.4,74,268.4,77.1,266.6L77.1,266.6z M111.1,247
		c3.2-1.8,7.2-0.7,9,2.4c1.8,3.2,0.7,7.2-2.4,9c-3.2,1.8-7.2,0.7-9-2.4C106.8,252.8,107.9,248.8,111.1,247L111.1,247z M145,227.3
		c3.2-1.8,7.2-0.7,9,2.4c1.8,3.2,0.7,7.2-2.4,9c-3.2,1.8-7.2,0.7-9-2.4C140.8,233.2,141.9,229.2,145,227.3L145,227.3z M179,207.7
		c3.2-1.8,7.2-0.7,9,2.4c1.8,3.2,0.7,7.2-2.4,9c-3.2,1.8-7.2,0.7-9-2.4C174.8,213.6,175.9,209.6,179,207.7L179,207.7z M213,188.1
		c3.2-1.8,7.2-0.7,9,2.4c1.8,3.2,0.7,7.2-2.4,9c-3.2,1.8-7.2,0.7-9-2.4S209.8,189.9,213,188.1L213,188.1z M0,358.8
		c1.6,0.5,2.9,1.5,3.8,3c1.8,3.2,0.7,7.2-2.4,9C1,371,0.5,371.2,0,371.4V358.8L0,358.8z M28.8,339.8c3.2-1.8,7.2-0.7,9,2.4
		c1.8,3.2,0.7,7.2-2.4,9c-3.2,1.8-7.2,0.7-9-2.4C24.6,345.6,25.6,341.6,28.8,339.8L28.8,339.8z M62.7,320.1c3.2-1.8,7.2-0.7,9,2.4
		c1.8,3.2,0.7,7.2-2.4,9c-3.2,1.8-7.2,0.7-9-2.4C58.5,326,59.6,322,62.7,320.1L62.7,320.1z M96.7,300.5c3.2-1.8,7.2-0.7,9,2.4
		c1.8,3.2,0.7,7.2-2.4,9c-3.2,1.8-7.2,0.7-9-2.4C92.5,306.4,93.6,302.4,96.7,300.5L96.7,300.5z M130.7,280.9c3.2-1.8,7.2-0.7,9,2.4
		c1.8,3.2,0.7,7.2-2.4,9c-3.2,1.8-7.2,0.7-9-2.4C126.4,286.8,127.5,282.7,130.7,280.9L130.7,280.9z M164.6,261.3
		c3.2-1.8,7.2-0.7,9,2.4c1.8,3.2,0.7,7.2-2.4,9c-3.2,1.8-7.2,0.7-9-2.4C160.4,267.2,161.5,263.1,164.6,261.3L164.6,261.3z
		 M198.6,241.7c3.2-1.8,7.2-0.7,9,2.4c1.8,3.2,0.7,7.2-2.4,9c-3.2,1.8-7.2,0.7-9-2.4C194.4,247.6,195.5,243.5,198.6,241.7
		L198.6,241.7z M232.6,222.1c3.2-1.8,7.2-0.7,9,2.4c1.8,3.2,0.7,7.2-2.4,9c-3.2,1.8-7.2,0.7-9-2.4
		C228.3,227.9,229.4,223.9,232.6,222.1L232.6,222.1z M14.4,393.3c3.2-1.8,7.2-0.7,9,2.4c1.8,3.2,0.7,7.2-2.4,9
		c-3.2,1.8-7.2,0.7-9-2.4C10.2,399.2,11.3,395.2,14.4,393.3L14.4,393.3z M48.4,373.7c3.2-1.8,7.2-0.7,9,2.4c1.8,3.2,0.7,7.2-2.4,9
		c-3.2,1.8-7.2,0.7-9-2.4C44.2,379.6,45.2,375.5,48.4,373.7L48.4,373.7z M82.4,354.1c3.2-1.8,7.2-0.7,9,2.4c1.8,3.2,0.7,7.2-2.4,9
		c-3.2,1.8-7.2,0.7-9-2.4C78.1,360,79.2,355.9,82.4,354.1L82.4,354.1z M116.3,334.5c3.2-1.8,7.2-0.7,9,2.4c1.8,3.2,0.7,7.2-2.4,9
		c-3.2,1.8-7.2,0.7-9-2.4C112.1,340.4,113.2,336.3,116.3,334.5L116.3,334.5z M150.3,314.9c3.2-1.8,7.2-0.7,9,2.4
		c1.8,3.2,0.7,7.2-2.4,9c-3.2,1.8-7.2,0.7-9-2.4C146.1,320.7,147.1,316.7,150.3,314.9L150.3,314.9z M184.3,295.3
		c3.2-1.8,7.2-0.7,9,2.4c1.8,3.2,0.7,7.2-2.4,9c-3.2,1.8-7.2,0.7-9-2.4C180,301.1,181.1,297.1,184.3,295.3L184.3,295.3z
		 M218.2,275.7c3.2-1.8,7.2-0.7,9,2.4c1.8,3.2,0.7,7.2-2.4,9c-3.2,1.8-7.2,0.7-9-2.4C214,281.5,215.1,277.5,218.2,275.7L218.2,275.7
		z M252.2,256.1c3.2-1.8,7.2-0.7,9,2.4c1.8,3.2,0.7,7.2-2.4,9c-3.2,1.8-7.2,0.7-9-2.4C248,261.9,249,257.9,252.2,256.1L252.2,256.1z
		 M0.1,446.9c3.2-1.8,7.2-0.7,9,2.4c1.8,3.2,0.7,7.2-2.4,9c-2.1,1.2-4.7,1.1-6.7,0L0.1,446.9L0.1,446.9L0.1,446.9z M34,427.3
		c3.2-1.8,7.2-0.7,9,2.4c1.8,3.2,0.7,7.2-2.4,9c-3.2,1.8-7.2,0.7-9-2.4C29.8,433.1,30.9,429.1,34,427.3L34,427.3z M68,407.7
		c3.2-1.8,7.2-0.7,9,2.4c1.8,3.2,0.7,7.2-2.4,9c-3.2,1.8-7.2,0.7-9-2.4C63.8,413.5,64.9,409.5,68,407.7L68,407.7z M102,388.1
		c3.2-1.8,7.2-0.7,9,2.4c1.8,3.2,0.7,7.2-2.4,9c-3.2,1.8-7.2,0.7-9-2.4C97.7,393.9,98.8,389.9,102,388.1L102,388.1z M135.9,368.5
		c3.2-1.8,7.2-0.7,9,2.4c1.8,3.2,0.7,7.2-2.4,9c-3.2,1.8-7.2,0.7-9-2.4C131.7,374.3,132.8,370.3,135.9,368.5L135.9,368.5z
		 M169.9,348.9c3.2-1.8,7.2-0.7,9,2.4c1.8,3.2,0.7,7.2-2.4,9c-3.2,1.8-7.2,0.7-9-2.4C165.7,354.7,166.7,350.7,169.9,348.9
		L169.9,348.9z M203.9,329.2c3.2-1.8,7.2-0.7,9,2.4c1.8,3.2,0.7,7.2-2.4,9c-3.2,1.8-7.2,0.7-9-2.4
		C199.6,335.1,200.7,331.1,203.9,329.2L203.9,329.2z M237.8,309.6c3.2-1.8,7.2-0.7,9,2.4c1.8,3.2,0.7,7.2-2.4,9
		c-3.2,1.8-7.2,0.7-9-2.4C233.6,315.5,234.7,311.5,237.8,309.6L237.8,309.6z M271.8,290c3.2-1.8,7.2-0.7,9,2.4
		c1.8,3.2,0.7,7.2-2.4,9c-3.2,1.8-7.2,0.7-9-2.4C267.6,295.9,268.6,291.8,271.8,290L271.8,290z M19.7,480.9c3.2-1.8,7.2-0.7,9,2.4
		c1.8,3.2,0.7,7.2-2.4,9c-3.2,1.8-7.2,0.7-9-2.4C15.4,486.7,16.5,482.7,19.7,480.9L19.7,480.9z M53.6,461.3c3.2-1.8,7.2-0.7,9,2.4
		c1.8,3.2,0.7,7.2-2.4,9c-3.2,1.8-7.2,0.7-9-2.4C49.4,467.1,50.5,463.1,53.6,461.3L53.6,461.3z M87.6,441.7c3.2-1.8,7.2-0.7,9,2.4
		s0.7,7.2-2.4,9s-7.2,0.7-9-2.4C83.4,447.5,84.5,443.5,87.6,441.7L87.6,441.7z M121.6,422c3.2-1.8,7.2-0.7,9,2.4
		c1.8,3.2,0.7,7.2-2.4,9c-3.2,1.8-7.2,0.7-9-2.4C117.3,427.9,118.4,423.9,121.6,422L121.6,422z M155.5,402.4c3.2-1.8,7.2-0.7,9,2.4
		c1.8,3.2,0.7,7.2-2.4,9c-3.2,1.8-7.2,0.7-9-2.4C151.3,408.3,152.4,404.3,155.5,402.4L155.5,402.4z M189.5,382.8
		c3.2-1.8,7.2-0.7,9,2.4c1.8,3.2,0.7,7.2-2.4,9c-3.2,1.8-7.2,0.7-9-2.4C185.3,388.7,186.4,384.6,189.5,382.8L189.5,382.8z
		 M223.5,363.2c3.2-1.8,7.2-0.7,9,2.4c1.8,3.2,0.7,7.2-2.4,9c-3.2,1.8-7.2,0.7-9-2.4C219.2,369.1,220.3,365,223.5,363.2L223.5,363.2
		z M257.4,343.6c3.2-1.8,7.2-0.7,9,2.4c1.8,3.2,0.7,7.2-2.4,9c-3.2,1.8-7.2,0.7-9-2.4C253.2,349.5,254.3,345.4,257.4,343.6
		L257.4,343.6z M291.4,324c3.2-1.8,7.2-0.7,9,2.4c1.8,3.2,0.7,7.2-2.4,9c-3.2,1.8-7.2,0.7-9-2.4C287.2,329.8,288.3,325.8,291.4,324
		L291.4,324z M5.3,534.4c3.2-1.8,7.2-0.7,9,2.4c1.8,3.2,0.7,7.2-2.4,9c-3.2,1.8-7.2,0.7-9-2.4C1.1,540.3,2.2,536.3,5.3,534.4
		L5.3,534.4z M39.3,514.8c3.2-1.8,7.2-0.7,9,2.4c1.8,3.2,0.7,7.2-2.4,9c-3.2,1.8-7.2,0.7-9-2.4C35.1,520.7,36.1,516.7,39.3,514.8
		L39.3,514.8z M73.3,495.2c3.2-1.8,7.2-0.7,9,2.4c1.8,3.2,0.7,7.2-2.4,9c-3.2,1.8-7.2,0.7-9-2.4C69,501.1,70.1,497,73.3,495.2
		L73.3,495.2z M107.2,475.6c3.2-1.8,7.2-0.7,9,2.4c1.8,3.2,0.7,7.2-2.4,9c-3.2,1.8-7.2,0.7-9-2.4C103,481.5,104.1,477.4,107.2,475.6
		L107.2,475.6z M141.2,456c3.2-1.8,7.2-0.7,9,2.4c1.8,3.2,0.7,7.2-2.4,9c-3.2,1.8-7.2,0.7-9-2.4C137,461.9,138,457.8,141.2,456
		L141.2,456z M175.2,436.4c3.2-1.8,7.2-0.7,9,2.4c1.8,3.2,0.7,7.2-2.4,9c-3.2,1.8-7.2,0.7-9-2.4C170.9,442.3,172,438.2,175.2,436.4
		L175.2,436.4z M209.1,416.8c3.2-1.8,7.2-0.7,9,2.4c1.8,3.2,0.7,7.2-2.4,9c-3.2,1.8-7.2,0.7-9-2.4
		C204.9,422.6,206,418.6,209.1,416.8L209.1,416.8z M243.1,397.2c3.2-1.8,7.2-0.7,9,2.4c1.8,3.2,0.7,7.2-2.4,9
		c-3.2,1.8-7.2,0.7-9-2.4C238.9,403,239.9,399,243.1,397.2L243.1,397.2z M277.1,377.6c3.2-1.8,7.2-0.7,9,2.4c1.8,3.2,0.7,7.2-2.4,9
		c-3.2,1.8-7.2,0.7-9-2.4C272.8,383.4,273.9,379.4,277.1,377.6L277.1,377.6z M311,358c3.2-1.8,7.2-0.7,9,2.4c1.8,3.2,0.7,7.2-2.4,9
		c-3.2,1.8-7.2,0.7-9-2.4C306.8,363.8,307.9,359.8,311,358z"/>
	<path class="st0" d="M518.9,929.2c2.5-1.4,5.7-0.6,7.2,1.9c1.4,2.5,0.6,5.7-1.9,7.2c-2.5,1.4-5.7,0.6-7.2-1.9
		C515.5,933.9,516.4,930.7,518.9,929.2L518.9,929.2z M545.9,913.7c2.5-1.4,5.7-0.6,7.2,1.9c1.4,2.5,0.6,5.7-1.9,7.2
		c-2.5,1.4-5.7,0.6-7.2-1.9C542.5,918.3,543.4,915.1,545.9,913.7L545.9,913.7z M572.9,898.1c2.5-1.4,5.7-0.6,7.2,1.9
		c1.4,2.5,0.6,5.7-1.9,7.2c-2.5,1.4-5.7,0.6-7.2-1.9C569.5,902.7,570.4,899.5,572.9,898.1L572.9,898.1z M599.9,882.5
		c2.5-1.4,5.7-0.6,7.2,1.9c1.4,2.5,0.6,5.7-1.9,7.2c-2.5,1.4-5.7,0.6-7.2-1.9C596.5,887.1,597.3,883.9,599.9,882.5L599.9,882.5z
		 M626.9,866.9c2.5-1.4,5.7-0.6,7.2,1.9c1.4,2.5,0.6,5.7-1.9,7.2c-2.5,1.4-5.7,0.6-7.2-1.9C623.5,871.5,624.3,868.3,626.9,866.9
		L626.9,866.9z M653.9,851.3c2.5-1.4,5.7-0.6,7.2,1.9c1.4,2.5,0.6,5.7-1.9,7.2c-2.5,1.4-5.7,0.6-7.2-1.9
		C650.5,856,651.3,852.7,653.9,851.3L653.9,851.3z M680.9,835.7c2.5-1.4,5.7-0.6,7.2,1.9c1.4,2.5,0.6,5.7-1.9,7.2
		c-2.5,1.4-5.7,0.6-7.2-1.9C677.5,840.4,678.3,837.2,680.9,835.7L680.9,835.7z M534.4,956.2c2.5-1.4,5.7-0.6,7.2,1.9
		c1.4,2.5,0.6,5.7-1.9,7.2c-2.5,1.4-5.7,0.6-7.2-1.9C531.1,960.9,531.9,957.7,534.4,956.2L534.4,956.2z M561.4,940.6
		c2.5-1.4,5.7-0.6,7.2,1.9c1.4,2.5,0.6,5.7-1.9,7.2c-2.5,1.4-5.7,0.6-7.2-1.9C558.1,945.3,558.9,942.1,561.4,940.6L561.4,940.6z
		 M588.4,925.1c2.5-1.4,5.7-0.6,7.2,1.9c1.4,2.5,0.6,5.7-1.9,7.2c-2.5,1.4-5.7,0.6-7.2-1.9C585.1,929.7,585.9,926.5,588.4,925.1
		L588.4,925.1z M615.4,909.5c2.5-1.4,5.7-0.6,7.2,1.9c1.4,2.5,0.6,5.7-1.9,7.2c-2.5,1.4-5.7,0.6-7.2-1.9
		C612.1,914.1,612.9,910.9,615.4,909.5L615.4,909.5z M642.4,893.9c2.5-1.4,5.7-0.6,7.2,1.9c1.4,2.5,0.6,5.7-1.9,7.2
		c-2.5,1.4-5.7,0.6-7.2-1.9C639.1,898.5,639.9,895.3,642.4,893.9L642.4,893.9z M669.4,878.3c2.5-1.4,5.7-0.6,7.2,1.9
		c1.4,2.5,0.6,5.7-1.9,7.2c-2.5,1.4-5.7,0.6-7.2-1.9C666.1,882.9,666.9,879.7,669.4,878.3L669.4,878.3z M696.4,862.7
		c2.5-1.4,5.7-0.6,7.2,1.9c1.4,2.5,0.6,5.7-1.9,7.2c-2.5,1.4-5.7,0.6-7.2-1.9C693.1,867.4,693.9,864.2,696.4,862.7L696.4,862.7z
		 M550,983.2c2.5-1.4,5.7-0.6,7.2,1.9c1.4,2.5,0.6,5.7-1.9,7.2c-2.5,1.4-5.7,0.6-7.2-1.9C546.7,987.9,547.5,984.7,550,983.2
		L550,983.2z M577,967.6c2.5-1.4,5.7-0.6,7.2,1.9c1.4,2.5,0.6,5.7-1.9,7.2c-2.5,1.4-5.7,0.6-7.2-1.9
		C573.7,972.3,574.5,969.1,577,967.6L577,967.6z M604,952.1c2.5-1.4,5.7-0.6,7.2,1.9c1.4,2.5,0.6,5.7-1.9,7.2
		c-2.5,1.4-5.7,0.6-7.2-1.9C600.7,956.7,601.5,953.5,604,952.1L604,952.1z M631,936.5c2.5-1.4,5.7-0.6,7.2,1.9
		c1.4,2.5,0.6,5.7-1.9,7.2c-2.5,1.4-5.7,0.6-7.2-1.9C627.7,941.1,628.5,937.9,631,936.5L631,936.5z M658,920.9
		c2.5-1.4,5.7-0.6,7.2,1.9c1.4,2.5,0.6,5.7-1.9,7.2c-2.5,1.4-5.7,0.6-7.2-1.9C654.7,925.5,655.5,922.3,658,920.9L658,920.9z
		 M685,905.3c2.5-1.4,5.7-0.6,7.2,1.9c1.4,2.5,0.6,5.7-1.9,7.2c-2.5,1.4-5.7,0.6-7.2-1.9C681.7,909.9,682.5,906.7,685,905.3
		L685,905.3z M712,889.7c2.5-1.4,5.7-0.6,7.2,1.9c1.4,2.5,0.6,5.7-1.9,7.2c-2.5,1.4-5.7,0.6-7.2-1.9
		C708.7,894.4,709.5,891.2,712,889.7L712,889.7z M592.6,994.6c2.5-1.4,5.7-0.6,7.2,1.9c1.4,2.5,0.6,5.7-1.9,7.2
		c-2.5,1.4-5.7,0.6-7.2-1.9C589.3,999.3,590.1,996.1,592.6,994.6L592.6,994.6z M619.6,979.1c2.5-1.4,5.7-0.6,7.2,1.9
		c1.4,2.5,0.6,5.7-1.9,7.2c-2.5,1.4-5.7,0.6-7.2-1.9C616.3,983.7,617.1,980.5,619.6,979.1L619.6,979.1z M646.6,963.5
		c2.5-1.4,5.7-0.6,7.2,1.9c1.4,2.5,0.6,5.7-1.9,7.2c-2.5,1.4-5.7,0.6-7.2-1.9C643.3,968.1,644.1,964.9,646.6,963.5L646.6,963.5z
		 M673.6,947.9c2.5-1.4,5.7-0.6,7.2,1.9c1.4,2.5,0.6,5.7-1.9,7.2c-2.5,1.4-5.7,0.6-7.2-1.9C670.3,952.5,671.1,949.3,673.6,947.9
		L673.6,947.9z M700.6,932.3c2.5-1.4,5.7-0.6,7.2,1.9c1.4,2.5,0.6,5.7-1.9,7.2c-2.5,1.4-5.7,0.6-7.2-1.9
		C697.3,936.9,698.1,933.7,700.6,932.3L700.6,932.3z M727.6,916.7c2.5-1.4,5.7-0.6,7.2,1.9c1.4,2.5,0.6,5.7-1.9,7.2
		c-2.5,1.4-5.7,0.6-7.2-1.9C724.2,921.4,725.1,918.2,727.6,916.7L727.6,916.7z M608.2,1021.6c2.5-1.4,5.7-0.6,7.2,1.9
		c1,1.8,0.9,3.9-0.2,5.5c-3.2-1.1-6.4-2.3-9.6-3.6C605.9,1023.9,606.8,1022.5,608.2,1021.6L608.2,1021.6z M635.2,1006.1
		c2.5-1.4,5.7-0.6,7.2,1.9c1.4,2.5,0.6,5.7-1.9,7.2c-2.5,1.4-5.7,0.6-7.2-1.9C631.8,1010.7,632.7,1007.5,635.2,1006.1L635.2,1006.1z
		 M662.2,990.5c2.5-1.4,5.7-0.6,7.2,1.9c1.4,2.5,0.6,5.7-1.9,7.2c-2.5,1.4-5.7,0.6-7.2-1.9C658.8,995.1,659.7,991.9,662.2,990.5
		L662.2,990.5z M689.2,974.9c2.5-1.4,5.7-0.6,7.2,1.9c1.4,2.5,0.6,5.7-1.9,7.2c-2.5,1.4-5.7,0.6-7.2-1.9
		C685.8,979.5,686.7,976.3,689.2,974.9L689.2,974.9z M716.2,959.3c2.5-1.4,5.7-0.6,7.2,1.9c1.4,2.5,0.6,5.7-1.9,7.2
		c-2.5,1.4-5.7,0.6-7.2-1.9C712.8,963.9,713.7,960.7,716.2,959.3L716.2,959.3z M743.2,943.7c2.5-1.4,5.7-0.6,7.2,1.9
		c1.4,2.5,0.6,5.7-1.9,7.2c-2.5,1.4-5.7,0.6-7.2-1.9C739.8,948.4,740.7,945.2,743.2,943.7L743.2,943.7z M650.8,1033.1
		c2.5-1.4,5.7-0.6,7.2,1.9c0.8,1.5,0.9,3.2,0.3,4.6c-3.4-0.5-6.7-1-10.1-1.7C648.1,1036,649,1034.1,650.8,1033.1L650.8,1033.1z
		 M677.8,1017.5c2.5-1.4,5.7-0.6,7.2,1.9c1.4,2.5,0.6,5.7-1.9,7.2c-2.5,1.4-5.7,0.6-7.2-1.9C674.4,1022.1,675.3,1018.9,677.8,1017.5
		L677.8,1017.5z M704.8,1001.9c2.5-1.4,5.7-0.6,7.2,1.9c1.4,2.5,0.6,5.7-1.9,7.2c-2.5,1.4-5.7,0.6-7.2-1.9
		C701.4,1006.5,702.3,1003.3,704.8,1001.9L704.8,1001.9z M731.8,986.3c2.5-1.4,5.7-0.6,7.2,1.9c1.4,2.5,0.6,5.7-1.9,7.2
		c-2.5,1.4-5.7,0.6-7.2-1.9C728.4,990.9,729.3,987.7,731.8,986.3L731.8,986.3z M758.8,970.7c2.5-1.4,5.7-0.6,7.2,1.9
		c1.4,2.5,0.6,5.7-1.9,7.2c-2.5,1.4-5.7,0.6-7.2-1.9C755.4,975.4,756.3,972.2,758.8,970.7L758.8,970.7z M720.4,1028.9
		c2.5-1.4,5.7-0.6,7.2,1.9c1.4,2.5,0.6,5.7-1.9,7.2c-2.5,1.4-5.7,0.6-7.2-1.9C717,1033.5,717.9,1030.3,720.4,1028.9L720.4,1028.9z
		 M747.4,1013.3c2.5-1.4,5.7-0.6,7.2,1.9c1.4,2.5,0.6,5.7-1.9,7.2c-2.5,1.4-5.7,0.6-7.2-1.9C744,1017.9,744.9,1014.7,747.4,1013.3
		L747.4,1013.3z M774.4,997.7c2.5-1.4,5.7-0.6,7.2,1.9c1.4,2.5,0.6,5.7-1.9,7.2c-2.5,1.4-5.7,0.6-7.2-1.9
		C771,1002.4,771.9,999.1,774.4,997.7L774.4,997.7z M517.7,677.9c2.5-1.4,5.7-0.6,7.2,1.9c1.4,2.5,0.6,5.7-1.9,7.2
		c-2.5,1.4-5.7,0.6-7.2-1.9C514.4,682.5,515.2,679.3,517.7,677.9L517.7,677.9z M544.7,662.3c2.5-1.4,5.7-0.6,7.2,1.9
		c1.4,2.5,0.6,5.7-1.9,7.2c-2.5,1.4-5.7,0.6-7.2-1.9C541.4,667,542.2,663.8,544.7,662.3L544.7,662.3z M571.7,646.7
		c2.5-1.4,5.7-0.6,7.2,1.9c1.4,2.5,0.6,5.7-1.9,7.2c-2.5,1.4-5.7,0.6-7.2-1.9C568.4,651.4,569.2,648.2,571.7,646.7L571.7,646.7z
		 M482.7,735.4c1.5,0.2,3,1.1,3.8,2.6c1.4,2.5,0.6,5.7-1.9,7.2c-1.8,1-3.9,0.9-5.5-0.2C480.2,741.8,481.4,738.6,482.7,735.4
		L482.7,735.4z M506.3,720.5c2.5-1.4,5.7-0.6,7.2,1.9c1.4,2.5,0.6,5.7-1.9,7.2c-2.5,1.4-5.7,0.6-7.2-1.9
		C503,725.1,503.8,721.9,506.3,720.5L506.3,720.5z M533.3,704.9c2.5-1.4,5.7-0.6,7.2,1.9c1.4,2.5,0.6,5.7-1.9,7.2
		c-2.5,1.4-5.7,0.6-7.2-1.9C530,709.5,530.8,706.3,533.3,704.9L533.3,704.9z M560.3,689.3c2.5-1.4,5.7-0.6,7.2,1.9
		c1.4,2.5,0.6,5.7-1.9,7.2c-2.5,1.4-5.7,0.6-7.2-1.9C557,694,557.8,690.8,560.3,689.3L560.3,689.3z M587.3,673.7
		c2.5-1.4,5.7-0.6,7.2,1.9c1.4,2.5,0.6,5.7-1.9,7.2c-2.5,1.4-5.7,0.6-7.2-1.9C584,678.4,584.8,675.2,587.3,673.7L587.3,673.7z
		 M470.2,778c1.9-0.1,3.8,0.8,4.9,2.6c1.4,2.5,0.6,5.7-1.9,7.2c-1.5,0.8-3.2,0.9-4.6,0.3C469,784.7,469.6,781.3,470.2,778L470.2,778
		z M494.9,763.1c2.5-1.4,5.7-0.6,7.2,1.9c1.4,2.5,0.6,5.7-1.9,7.2c-2.5,1.4-5.7,0.6-7.2-1.9C491.6,767.7,492.4,764.5,494.9,763.1
		L494.9,763.1z M521.9,747.5c2.5-1.4,5.7-0.6,7.2,1.9c1.4,2.5,0.6,5.7-1.9,7.2c-2.5,1.4-5.7,0.6-7.2-1.9
		C518.6,752.1,519.4,748.9,521.9,747.5L521.9,747.5z M548.9,731.9c2.5-1.4,5.7-0.6,7.2,1.9c1.4,2.5,0.6,5.7-1.9,7.2
		c-2.5,1.4-5.7,0.6-7.2-1.9C545.6,736.5,546.4,733.3,548.9,731.9L548.9,731.9z M575.9,716.3c2.5-1.4,5.7-0.6,7.2,1.9
		c1.4,2.5,0.6,5.7-1.9,7.2c-2.5,1.4-5.7,0.6-7.2-1.9C572.5,721,573.4,717.8,575.9,716.3L575.9,716.3z M602.9,700.7
		c2.5-1.4,5.7-0.6,7.2,1.9c1.4,2.5,0.6,5.7-1.9,7.2c-2.5,1.4-5.7,0.6-7.2-1.9C599.5,705.4,600.4,702.2,602.9,700.7L602.9,700.7z
		 M483.5,805.7c2.5-1.4,5.7-0.6,7.2,1.9c1.4,2.5,0.6,5.7-1.9,7.2c-2.5,1.4-5.7,0.6-7.2-1.9C480.1,810.3,481,807.1,483.5,805.7
		L483.5,805.7z M510.5,790.1c2.5-1.4,5.7-0.6,7.2,1.9c1.4,2.5,0.6,5.7-1.9,7.2c-2.5,1.4-5.7,0.6-7.2-1.9
		C507.1,794.7,508,791.5,510.5,790.1L510.5,790.1z M537.5,774.5c2.5-1.4,5.7-0.6,7.2,1.9c1.4,2.5,0.6,5.7-1.9,7.2
		c-2.5,1.4-5.7,0.6-7.2-1.9C534.1,779.1,535,775.9,537.5,774.5L537.5,774.5z M564.5,758.9c2.5-1.4,5.7-0.6,7.2,1.9
		c1.4,2.5,0.6,5.7-1.9,7.2c-2.5,1.4-5.7,0.6-7.2-1.9C561.1,763.5,562,760.3,564.5,758.9L564.5,758.9z M591.5,743.3
		c2.5-1.4,5.7-0.6,7.2,1.9c1.4,2.5,0.6,5.7-1.9,7.2c-2.5,1.4-5.7,0.6-7.2-1.9C588.1,748,589,744.8,591.5,743.3L591.5,743.3z
		 M618.5,727.7c2.5-1.4,5.7-0.6,7.2,1.9c1.4,2.5,0.6,5.7-1.9,7.2c-2.5,1.4-5.7,0.6-7.2-1.9C615.1,732.4,616,729.2,618.5,727.7
		L618.5,727.7z M472.1,848.2c2.5-1.4,5.7-0.6,7.2,1.9c1.4,2.5,0.6,5.7-1.9,7.2c-2.5,1.4-5.7,0.6-7.2-1.9
		C468.7,852.9,469.6,849.7,472.1,848.2L472.1,848.2z M499.1,832.7c2.5-1.4,5.7-0.6,7.2,1.9c1.4,2.5,0.6,5.7-1.9,7.2
		c-2.5,1.4-5.7,0.6-7.2-1.9C495.7,837.3,496.6,834.1,499.1,832.7L499.1,832.7z M526.1,817.1c2.5-1.4,5.7-0.6,7.2,1.9
		c1.4,2.5,0.6,5.7-1.9,7.2c-2.5,1.4-5.7,0.6-7.2-1.9C522.7,821.7,523.6,818.5,526.1,817.1L526.1,817.1z M553.1,801.5
		c2.5-1.4,5.7-0.6,7.2,1.9c1.4,2.5,0.6,5.7-1.9,7.2c-2.5,1.4-5.7,0.6-7.2-1.9C549.7,806.1,550.6,802.9,553.1,801.5L553.1,801.5z
		 M580.1,785.9c2.5-1.4,5.7-0.6,7.2,1.9c1.4,2.5,0.6,5.7-1.9,7.2c-2.5,1.4-5.7,0.6-7.2-1.9C576.7,790.5,577.6,787.3,580.1,785.9
		L580.1,785.9z M607.1,770.3c2.5-1.4,5.7-0.6,7.2,1.9c1.4,2.5,0.6,5.7-1.9,7.2c-2.5,1.4-5.7,0.6-7.2-1.9
		C603.7,775,604.6,771.7,607.1,770.3L607.1,770.3z M634.1,754.7c2.5-1.4,5.7-0.6,7.2,1.9c1.4,2.5,0.6,5.7-1.9,7.2
		c-2.5,1.4-5.7,0.6-7.2-1.9C630.7,759.4,631.6,756.2,634.1,754.7L634.1,754.7z M487.7,875.2c2.5-1.4,5.7-0.6,7.2,1.9
		c1.4,2.5,0.6,5.7-1.9,7.2c-2.5,1.4-5.7,0.6-7.2-1.9C484.3,879.9,485.2,876.7,487.7,875.2L487.7,875.2z M514.7,859.7
		c2.5-1.4,5.7-0.6,7.2,1.9c1.4,2.5,0.6,5.7-1.9,7.2c-2.5,1.4-5.7,0.6-7.2-1.9C511.3,864.3,512.2,861.1,514.7,859.7L514.7,859.7z
		 M541.7,844.1c2.5-1.4,5.7-0.6,7.2,1.9c1.4,2.5,0.6,5.7-1.9,7.2c-2.5,1.4-5.7,0.6-7.2-1.9C538.3,848.7,539.2,845.5,541.7,844.1
		L541.7,844.1z M568.7,828.5c2.5-1.4,5.7-0.6,7.2,1.9c1.4,2.5,0.6,5.7-1.9,7.2c-2.5,1.4-5.7,0.6-7.2-1.9
		C565.3,833.1,566.2,829.9,568.7,828.5L568.7,828.5z M595.7,812.9c2.5-1.4,5.7-0.6,7.2,1.9c1.4,2.5,0.6,5.7-1.9,7.2
		c-2.5,1.4-5.7,0.6-7.2-1.9C592.3,817.5,593.2,814.3,595.7,812.9L595.7,812.9z M622.7,797.3c2.5-1.4,5.7-0.6,7.2,1.9
		c1.4,2.5,0.6,5.7-1.9,7.2c-2.5,1.4-5.7,0.6-7.2-1.9C619.3,802,620.2,798.7,622.7,797.3L622.7,797.3z M649.7,781.7
		c2.5-1.4,5.7-0.6,7.2,1.9c1.4,2.5,0.6,5.7-1.9,7.2c-2.5,1.4-5.7,0.6-7.2-1.9C646.3,786.4,647.2,783.2,649.7,781.7L649.7,781.7z
		 M503.3,902.2c2.5-1.4,5.7-0.6,7.2,1.9c1.4,2.5,0.6,5.7-1.9,7.2c-2.5,1.4-5.7,0.6-7.2-1.9C499.9,906.9,500.8,903.7,503.3,902.2
		L503.3,902.2z M530.3,886.7c2.5-1.4,5.7-0.6,7.2,1.9c1.4,2.5,0.6,5.7-1.9,7.2c-2.5,1.4-5.7,0.6-7.2-1.9
		C526.9,891.3,527.8,888.1,530.3,886.7L530.3,886.7z M557.3,871.1c2.5-1.4,5.7-0.6,7.2,1.9c1.4,2.5,0.6,5.7-1.9,7.2
		c-2.5,1.4-5.7,0.6-7.2-1.9C553.9,875.7,554.8,872.5,557.3,871.1L557.3,871.1z M584.3,855.5c2.5-1.4,5.7-0.6,7.2,1.9
		c1.4,2.5,0.6,5.7-1.9,7.2c-2.5,1.4-5.7,0.6-7.2-1.9C580.9,860.1,581.8,856.9,584.3,855.5L584.3,855.5z M611.3,839.9
		c2.5-1.4,5.7-0.6,7.2,1.9c1.4,2.5,0.6,5.7-1.9,7.2c-2.5,1.4-5.7,0.6-7.2-1.9C607.9,844.5,608.8,841.3,611.3,839.9L611.3,839.9z
		 M638.3,824.3c2.5-1.4,5.7-0.6,7.2,1.9c1.4,2.5,0.6,5.7-1.9,7.2c-2.5,1.4-5.7,0.6-7.2-1.9C634.9,829,635.8,825.7,638.3,824.3
		L638.3,824.3z M665.3,808.7c2.5-1.4,5.7-0.6,7.2,1.9c1.4,2.5,0.6,5.7-1.9,7.2c-2.5,1.4-5.7,0.6-7.2-1.9
		C661.9,813.4,662.8,810.2,665.3,808.7L665.3,808.7z M707.8,820.1c2.5-1.4,5.7-0.6,7.2,1.9c1.4,2.5,0.6,5.7-1.9,7.2
		c-2.5,1.4-5.7,0.6-7.2-1.9C704.5,824.8,705.3,821.6,707.8,820.1L707.8,820.1z M734.8,804.5c2.5-1.4,5.7-0.6,7.2,1.9
		c1.4,2.5,0.6,5.7-1.9,7.2c-2.5,1.4-5.7,0.6-7.2-1.9C731.5,809.2,732.3,806,734.8,804.5L734.8,804.5z M761.8,788.9
		c2.5-1.4,5.7-0.6,7.2,1.9c1.4,2.5,0.6,5.7-1.9,7.2c-2.5,1.4-5.7,0.6-7.2-1.9C758.5,793.6,759.3,790.4,761.8,788.9L761.8,788.9z
		 M788.8,773.4c2.5-1.4,5.7-0.6,7.2,1.9c1.4,2.5,0.6,5.7-1.9,7.2c-2.5,1.4-5.7,0.6-7.2-1.9C785.5,778,786.3,774.8,788.8,773.4
		L788.8,773.4z M815.8,757.8c2.5-1.4,5.7-0.6,7.2,1.9c1.4,2.5,0.6,5.7-1.9,7.2c-2.5,1.4-5.7,0.6-7.2-1.9
		C812.5,762.4,813.3,759.2,815.8,757.8L815.8,757.8z M842.8,742.2c2.5-1.4,5.7-0.6,7.2,1.9c1.4,2.5,0.6,5.7-1.9,7.2
		c-2.5,1.4-5.7,0.6-7.2-1.9C839.5,746.8,840.3,743.6,842.8,742.2L842.8,742.2z M869.8,726.6c2.5-1.4,5.7-0.6,7.2,1.9
		c1.4,2.5,0.6,5.7-1.9,7.2c-2.5,1.4-5.7,0.6-7.2-1.9C866.5,731.3,867.3,728,869.8,726.6L869.8,726.6z M723.4,847.1
		c2.5-1.4,5.7-0.6,7.2,1.9c1.4,2.5,0.6,5.7-1.9,7.2c-2.5,1.4-5.7,0.6-7.2-1.9C720.1,851.8,720.9,848.6,723.4,847.1L723.4,847.1z
		 M750.4,831.5c2.5-1.4,5.7-0.6,7.2,1.9c1.4,2.5,0.6,5.7-1.9,7.2c-2.5,1.4-5.7,0.6-7.2-1.9C747.1,836.2,747.9,833,750.4,831.5
		L750.4,831.5z M777.4,815.9c2.5-1.4,5.7-0.6,7.2,1.9c1.4,2.5,0.6,5.7-1.9,7.2c-2.5,1.4-5.7,0.6-7.2-1.9
		C774.1,820.6,774.9,817.4,777.4,815.9L777.4,815.9z M804.4,800.4c2.5-1.4,5.7-0.6,7.2,1.9c1.4,2.5,0.6,5.7-1.9,7.2
		c-2.5,1.4-5.7,0.6-7.2-1.9C801.1,805,801.9,801.8,804.4,800.4L804.4,800.4z M831.4,784.8c2.5-1.4,5.7-0.6,7.2,1.9
		c1.4,2.5,0.6,5.7-1.9,7.2c-2.5,1.4-5.7,0.6-7.2-1.9C828.1,789.4,828.9,786.2,831.4,784.8L831.4,784.8z M858.4,769.2
		c2.5-1.4,5.7-0.6,7.2,1.9c1.4,2.5,0.6,5.7-1.9,7.2c-2.5,1.4-5.7,0.6-7.2-1.9C855.1,773.8,855.9,770.6,858.4,769.2L858.4,769.2z
		 M885.4,753.6c2.5-1.4,5.7-0.6,7.2,1.9c1.4,2.5,0.6,5.7-1.9,7.2c-2.5,1.4-5.7,0.6-7.2-1.9C882.1,758.2,882.9,755,885.4,753.6
		L885.4,753.6z M739,874.1c2.5-1.4,5.7-0.6,7.2,1.9c1.4,2.5,0.6,5.7-1.9,7.2c-2.5,1.4-5.7,0.6-7.2-1.9
		C735.7,878.8,736.5,875.6,739,874.1L739,874.1z M766,858.5c2.5-1.4,5.7-0.6,7.2,1.9c1.4,2.5,0.6,5.7-1.9,7.2
		c-2.5,1.4-5.7,0.6-7.2-1.9C762.7,863.2,763.5,860,766,858.5L766,858.5z M793,842.9c2.5-1.4,5.7-0.6,7.2,1.9
		c1.4,2.5,0.6,5.7-1.9,7.2c-2.5,1.4-5.7,0.6-7.2-1.9C789.7,847.6,790.5,844.4,793,842.9L793,842.9z M820,827.4
		c2.5-1.4,5.7-0.6,7.2,1.9c1.4,2.5,0.6,5.7-1.9,7.2c-2.5,1.4-5.7,0.6-7.2-1.9C816.7,832,817.5,828.8,820,827.4L820,827.4z
		 M847,811.8c2.5-1.4,5.7-0.6,7.2,1.9c1.4,2.5,0.6,5.7-1.9,7.2c-2.5,1.4-5.7,0.6-7.2-1.9C843.7,816.4,844.5,813.2,847,811.8
		L847,811.8z M874,796.2c2.5-1.4,5.7-0.6,7.2,1.9c1.4,2.5,0.6,5.7-1.9,7.2c-2.5,1.4-5.7,0.6-7.2-1.9
		C870.7,800.8,871.5,797.6,874,796.2L874,796.2z M901,780.6c2.5-1.4,5.7-0.6,7.2,1.9c1.4,2.5,0.6,5.7-1.9,7.2
		c-2.5,1.4-5.7,0.6-7.2-1.9C897.7,785.2,898.5,782,901,780.6L901,780.6z M754.6,901.1c2.5-1.4,5.7-0.6,7.2,1.9
		c1.4,2.5,0.6,5.7-1.9,7.2c-2.5,1.4-5.7,0.6-7.2-1.9C751.2,905.8,752.1,902.6,754.6,901.1L754.6,901.1z M781.6,885.5
		c2.5-1.4,5.7-0.6,7.2,1.9c1.4,2.5,0.6,5.7-1.9,7.2c-2.5,1.4-5.7,0.6-7.2-1.9C778.2,890.2,779.1,887,781.6,885.5L781.6,885.5z
		 M808.6,869.9c2.5-1.4,5.7-0.6,7.2,1.9c1.4,2.5,0.6,5.7-1.9,7.2c-2.5,1.4-5.7,0.6-7.2-1.9C805.2,874.6,806.1,871.4,808.6,869.9
		L808.6,869.9z M835.6,854.4c2.5-1.4,5.7-0.6,7.2,1.9c1.4,2.5,0.6,5.7-1.9,7.2c-2.5,1.4-5.7,0.6-7.2-1.9
		C832.2,859,833.1,855.8,835.6,854.4L835.6,854.4z M862.6,838.8c2.5-1.4,5.7-0.6,7.2,1.9c1.4,2.5,0.6,5.7-1.9,7.2
		c-2.5,1.4-5.7,0.6-7.2-1.9C859.2,843.4,860.1,840.2,862.6,838.8L862.6,838.8z M889.6,823.2c2.5-1.4,5.7-0.6,7.2,1.9
		c1.4,2.5,0.6,5.7-1.9,7.2c-2.5,1.4-5.7,0.6-7.2-1.9C886.2,827.8,887.1,824.6,889.6,823.2L889.6,823.2z M770.2,928.1
		c2.5-1.4,5.7-0.6,7.2,1.9c1.4,2.5,0.6,5.7-1.9,7.2c-2.5,1.4-5.7,0.6-7.2-1.9C766.8,932.8,767.7,929.6,770.2,928.1L770.2,928.1z
		 M797.2,912.5c2.5-1.4,5.7-0.6,7.2,1.9c1.4,2.5,0.6,5.7-1.9,7.2c-2.5,1.4-5.7,0.6-7.2-1.9C793.8,917.2,794.7,914,797.2,912.5
		L797.2,912.5z M824.2,896.9c2.5-1.4,5.7-0.6,7.2,1.9c1.4,2.5,0.6,5.7-1.9,7.2c-2.5,1.4-5.7,0.6-7.2-1.9
		C820.8,901.6,821.7,898.4,824.2,896.9L824.2,896.9z M851.2,881.4c2.5-1.4,5.7-0.6,7.2,1.9c1.4,2.5,0.6,5.7-1.9,7.2
		c-2.5,1.4-5.7,0.6-7.2-1.9C847.8,886,848.7,882.8,851.2,881.4L851.2,881.4z M878.2,865.8c2.5-1.4,5.7-0.6,7.2,1.9
		c1.4,2.5,0.6,5.7-1.9,7.2c-2.5,1.4-5.7,0.6-7.2-1.9C874.8,870.4,875.7,867.2,878.2,865.8L878.2,865.8z M905.2,850.2
		c1.5-0.8,3.2-0.9,4.6-0.3c-0.5,3.4-1,6.7-1.7,10.1c-1.9,0.1-3.8-0.8-4.9-2.6C901.8,854.8,902.7,851.6,905.2,850.2L905.2,850.2z
		 M785.8,955.1c2.5-1.4,5.7-0.6,7.2,1.9c1.4,2.5,0.6,5.7-1.9,7.2c-2.5,1.4-5.7,0.6-7.2-1.9C782.4,959.8,783.3,956.6,785.8,955.1
		L785.8,955.1z M812.8,939.5c2.5-1.4,5.7-0.6,7.2,1.9c1.4,2.5,0.6,5.7-1.9,7.2c-2.5,1.4-5.7,0.6-7.2-1.9
		C809.4,944.2,810.3,941,812.8,939.5L812.8,939.5z M839.8,923.9c2.5-1.4,5.7-0.6,7.2,1.9c1.4,2.5,0.6,5.7-1.9,7.2
		c-2.5,1.4-5.7,0.6-7.2-1.9C836.4,928.6,837.3,925.4,839.8,923.9L839.8,923.9z M866.8,908.4c2.5-1.4,5.7-0.6,7.2,1.9
		c1.4,2.5,0.6,5.7-1.9,7.2c-2.5,1.4-5.7,0.6-7.2-1.9C863.4,913,864.3,909.8,866.8,908.4L866.8,908.4z M893.8,892.8
		c1.8-1,3.9-0.9,5.5,0.2c-1.1,3.2-2.3,6.4-3.6,9.6c-1.5-0.2-3-1.1-3.8-2.6C890.4,897.4,891.3,894.2,893.8,892.8L893.8,892.8z
		 M801.4,982.1c2.5-1.4,5.7-0.6,7.2,1.9c1.4,2.5,0.6,5.7-1.9,7.2c-2.5,1.4-5.7,0.6-7.2-1.9C798,986.8,798.9,983.6,801.4,982.1
		L801.4,982.1z M828.4,966.5c2.5-1.4,5.7-0.6,7.2,1.9c1.4,2.5,0.6,5.7-1.9,7.2c-2.5,1.4-5.7,0.6-7.2-1.9
		C825,971.2,825.9,968,828.4,966.5L828.4,966.5z M855.4,950.9c2.5-1.4,5.7-0.6,7.2,1.9c1.4,2.5,0.6,5.7-1.9,7.2
		c-2.5,1.4-5.7,0.6-7.2-1.9C852,955.6,852.9,952.4,855.4,950.9L855.4,950.9z M598.7,631.1c2.5-1.4,5.7-0.6,7.2,1.9
		c1.4,2.5,0.6,5.7-1.9,7.2c-2.5,1.4-5.7,0.6-7.2-1.9C595.4,635.8,596.2,632.6,598.7,631.1L598.7,631.1z M625.7,615.5
		c2.5-1.4,5.7-0.6,7.2,1.9c1.4,2.5,0.6,5.7-1.9,7.2c-2.5,1.4-5.7,0.6-7.2-1.9C622.4,620.2,623.2,617,625.7,615.5L625.7,615.5z
		 M652.7,600c2.5-1.4,5.7-0.6,7.2,1.9c1.4,2.5,0.6,5.7-1.9,7.2c-2.5,1.4-5.7,0.6-7.2-1.9C649.4,604.6,650.2,601.4,652.7,600
		L652.7,600z M614.3,658.1c2.5-1.4,5.7-0.6,7.2,1.9c1.4,2.5,0.6,5.7-1.9,7.2c-2.5,1.4-5.7,0.6-7.2-1.9
		C611,662.8,611.8,659.6,614.3,658.1L614.3,658.1z M641.3,642.5c2.5-1.4,5.7-0.6,7.2,1.9c1.4,2.5,0.6,5.7-1.9,7.2
		c-2.5,1.4-5.7,0.6-7.2-1.9C638,647.2,638.8,644,641.3,642.5L641.3,642.5z M668.3,627c2.5-1.4,5.7-0.6,7.2,1.9
		c1.4,2.5,0.6,5.7-1.9,7.2c-2.5,1.4-5.7,0.6-7.2-1.9C665,631.6,665.8,628.4,668.3,627L668.3,627z M695.3,611.4
		c2.5-1.4,5.7-0.6,7.2,1.9c1.4,2.5,0.6,5.7-1.9,7.2c-2.5,1.4-5.7,0.6-7.2-1.9C692,616,692.8,612.8,695.3,611.4L695.3,611.4z
		 M730.2,600c0.1,1.9-0.8,3.8-2.6,4.9c-2.5,1.4-5.7,0.6-7.2-1.9c-0.8-1.5-0.9-3.2-0.3-4.6C723.5,598.8,726.8,599.4,730.2,600
		L730.2,600z M629.9,685.1c2.5-1.4,5.7-0.6,7.2,1.9c1.4,2.5,0.6,5.7-1.9,7.2c-2.5,1.4-5.7,0.6-7.2-1.9
		C626.5,689.8,627.4,686.6,629.9,685.1L629.9,685.1z M656.9,669.5c2.5-1.4,5.7-0.6,7.2,1.9c1.4,2.5,0.6,5.7-1.9,7.2
		c-2.5,1.4-5.7,0.6-7.2-1.9C653.5,674.2,654.4,671,656.9,669.5L656.9,669.5z M683.9,654c2.5-1.4,5.7-0.6,7.2,1.9
		c1.4,2.5,0.6,5.7-1.9,7.2c-2.5,1.4-5.7,0.6-7.2-1.9C680.5,658.6,681.4,655.4,683.9,654L683.9,654z M710.9,638.4
		c2.5-1.4,5.7-0.6,7.2,1.9c1.4,2.5,0.6,5.7-1.9,7.2c-2.5,1.4-5.7,0.6-7.2-1.9C707.5,643,708.4,639.8,710.9,638.4L710.9,638.4z
		 M737.9,622.8c2.5-1.4,5.7-0.6,7.2,1.9c1.4,2.5,0.6,5.7-1.9,7.2c-2.5,1.4-5.7,0.6-7.2-1.9C734.5,627.4,735.4,624.2,737.9,622.8
		L737.9,622.8z M772.7,612.4c-0.2,1.5-1.1,3-2.6,3.8c-2.5,1.4-5.7,0.6-7.2-1.9c-1-1.8-0.9-3.9,0.2-5.5
		C766.4,610,769.6,611.2,772.7,612.4L772.7,612.4z M645.5,712.1c2.5-1.4,5.7-0.6,7.2,1.9c1.4,2.5,0.6,5.7-1.9,7.2
		c-2.5,1.4-5.7,0.6-7.2-1.9C642.1,716.8,643,713.6,645.5,712.1L645.5,712.1z M672.5,696.5c2.5-1.4,5.7-0.6,7.2,1.9
		c1.4,2.5,0.6,5.7-1.9,7.2s-5.7,0.6-7.2-1.9C669.1,701.2,670,698,672.5,696.5L672.5,696.5z M699.5,681c2.5-1.4,5.7-0.6,7.2,1.9
		c1.4,2.5,0.6,5.7-1.9,7.2c-2.5,1.4-5.7,0.6-7.2-1.9C696.1,685.6,697,682.4,699.5,681L699.5,681z M726.5,665.4
		c2.5-1.4,5.7-0.6,7.2,1.9c1.4,2.5,0.6,5.7-1.9,7.2c-2.5,1.4-5.7,0.6-7.2-1.9C723.1,670,724,666.8,726.5,665.4L726.5,665.4z
		 M753.5,649.8c2.5-1.4,5.7-0.6,7.2,1.9c1.4,2.5,0.6,5.7-1.9,7.2c-2.5,1.4-5.7,0.6-7.2-1.9C750.1,654.4,751,651.2,753.5,649.8
		L753.5,649.8z M780.5,634.2c2.5-1.4,5.7-0.6,7.2,1.9c1.4,2.5,0.6,5.7-1.9,7.2c-2.5,1.4-5.7,0.6-7.2-1.9
		C777.1,638.8,778,635.6,780.5,634.2L780.5,634.2z M661.1,739.1c2.5-1.4,5.7-0.6,7.2,1.9c1.4,2.5,0.6,5.7-1.9,7.2
		c-2.5,1.4-5.7,0.6-7.2-1.9C657.7,743.8,658.6,740.6,661.1,739.1L661.1,739.1z M688.1,723.5c2.5-1.4,5.7-0.6,7.2,1.9
		c1.4,2.5,0.6,5.7-1.9,7.2c-2.5,1.4-5.7,0.6-7.2-1.9C684.7,728.2,685.6,725,688.1,723.5L688.1,723.5z M715.1,708
		c2.5-1.4,5.7-0.6,7.2,1.9c1.4,2.5,0.6,5.7-1.9,7.2c-2.5,1.4-5.7,0.6-7.2-1.9C711.7,712.6,712.6,709.4,715.1,708L715.1,708z
		 M742.1,692.4c2.5-1.4,5.7-0.6,7.2,1.9c1.4,2.5,0.6,5.7-1.9,7.2c-2.5,1.4-5.7,0.6-7.2-1.9C738.7,697,739.6,693.8,742.1,692.4
		L742.1,692.4z M769.1,676.8c2.5-1.4,5.7-0.6,7.2,1.9c1.4,2.5,0.6,5.7-1.9,7.2c-2.5,1.4-5.7,0.6-7.2-1.9
		C765.7,681.4,766.6,678.2,769.1,676.8L769.1,676.8z M796.1,661.2c2.5-1.4,5.7-0.6,7.2,1.9c1.4,2.5,0.6,5.7-1.9,7.2
		c-2.5,1.4-5.7,0.6-7.2-1.9C792.7,665.8,793.6,662.6,796.1,661.2L796.1,661.2z M823.1,645.6c2.5-1.4,5.7-0.6,7.2,1.9
		c1.4,2.5,0.6,5.7-1.9,7.2c-2.5,1.4-5.7,0.6-7.2-1.9C819.7,650.3,820.6,647,823.1,645.6L823.1,645.6z M676.7,766.1
		c2.5-1.4,5.7-0.6,7.2,1.9c1.4,2.5,0.6,5.7-1.9,7.2c-2.5,1.4-5.7,0.6-7.2-1.9C673.3,770.8,674.2,767.6,676.7,766.1L676.7,766.1z
		 M703.7,750.5c2.5-1.4,5.7-0.6,7.2,1.9c1.4,2.5,0.6,5.7-1.9,7.2c-2.5,1.4-5.7,0.6-7.2-1.9C700.3,755.2,701.2,752,703.7,750.5
		L703.7,750.5z M730.7,735c2.5-1.4,5.7-0.6,7.2,1.9c1.4,2.5,0.6,5.7-1.9,7.2c-2.5,1.4-5.7,0.6-7.2-1.9
		C727.3,739.6,728.2,736.4,730.7,735L730.7,735z M757.7,719.4c2.5-1.4,5.7-0.6,7.2,1.9c1.4,2.5,0.6,5.7-1.9,7.2
		c-2.5,1.4-5.7,0.6-7.2-1.9C754.3,724,755.2,720.8,757.7,719.4L757.7,719.4z M784.7,703.8c2.5-1.4,5.7-0.6,7.2,1.9
		c1.4,2.5,0.6,5.7-1.9,7.2c-2.5,1.4-5.7,0.6-7.2-1.9C781.3,708.4,782.2,705.2,784.7,703.8L784.7,703.8z M811.7,688.2
		c2.5-1.4,5.7-0.6,7.2,1.9c1.4,2.5,0.6,5.7-1.9,7.2c-2.5,1.4-5.7,0.6-7.2-1.9C808.3,692.8,809.2,689.6,811.7,688.2L811.7,688.2z
		 M838.7,672.6c2.5-1.4,5.7-0.6,7.2,1.9c1.4,2.5,0.6,5.7-1.9,7.2c-2.5,1.4-5.7,0.6-7.2-1.9C835.3,677.3,836.2,674,838.7,672.6
		L838.7,672.6z M692.3,793.1c2.5-1.4,5.7-0.6,7.2,1.9c1.4,2.5,0.6,5.7-1.9,7.2c-2.5,1.4-5.7,0.6-7.2-1.9
		C688.9,797.8,689.8,794.6,692.3,793.1L692.3,793.1z M719.3,777.5c2.5-1.4,5.7-0.6,7.2,1.9c1.4,2.5,0.6,5.7-1.9,7.2
		c-2.5,1.4-5.7,0.6-7.2-1.9C715.9,782.2,716.8,779,719.3,777.5L719.3,777.5z M746.3,761.9c2.5-1.4,5.7-0.6,7.2,1.9
		c1.4,2.5,0.6,5.7-1.9,7.2c-2.5,1.4-5.7,0.6-7.2-1.9C742.9,766.6,743.8,763.4,746.3,761.9L746.3,761.9z M773.3,746.4
		c2.5-1.4,5.7-0.6,7.2,1.9c1.4,2.5,0.6,5.7-1.9,7.2c-2.5,1.4-5.7,0.6-7.2-1.9C769.9,751,770.8,747.8,773.3,746.4L773.3,746.4z
		 M800.3,730.8c2.5-1.4,5.7-0.6,7.2,1.9c1.4,2.5,0.6,5.7-1.9,7.2c-2.5,1.4-5.7,0.6-7.2-1.9C796.9,735.4,797.7,732.2,800.3,730.8
		L800.3,730.8z M827.3,715.2c2.5-1.4,5.7-0.6,7.2,1.9c1.4,2.5,0.6,5.7-1.9,7.2c-2.5,1.4-5.7,0.6-7.2-1.9
		C823.9,719.8,824.7,716.6,827.3,715.2L827.3,715.2z M854.3,699.6c2.5-1.4,5.7-0.6,7.2,1.9c1.4,2.5,0.6,5.7-1.9,7.2
		c-2.5,1.4-5.7,0.6-7.2-1.9C850.9,704.2,851.7,701,854.3,699.6z"/>
</g>
</svg>
