<?xml version="1.0" encoding="utf-8"?>
<!-- Generator: Adobe Illustrator 23.0.0, SVG Export Plug-In . SVG Version: 6.00 Build 0)  -->
<svg version="1.1" id="Layer_1" xmlns="http://www.w3.org/2000/svg" xmlns:xlink="http://www.w3.org/1999/xlink" x="0px" y="0px"
     viewBox="0 0 280 60" style="enable-background:new 0 0 280 60;" xml:space="preserve">
<style type="text/css">
	.st0{fill:#3E3E40;}
	.st1{fill:#8BBA15;}
</style>
    <g>
	<g>
		<path class="st0" d="M31.9,18.8H13.3c-2.2,0-4.1,0.8-5.6,2.3c-1.6,1.6-2.3,3.4-2.3,5.6v17.5c0,2.2,0.8,4.1,2.3,5.6
			s3.4,2.3,5.6,2.3h26.1V7.8h-7.6L31.9,18.8L31.9,18.8z M31.9,44.3c0,0.3-0.1,0.4-0.4,0.4H13.3c-0.2,0-0.3-0.1-0.3-0.4V26.6
			c0-0.3,0.1-0.4,0.3-0.4h18.1c0.3,0,0.4,0.1,0.4,0.4L31.9,44.3L31.9,44.3z"/>
        <path class="st0" d="M70.2,18.8H52.1c-2.2,0-4.1,0.8-5.6,2.3c-1.6,1.6-2.3,3.4-2.3,5.6v17.5c0,2.2,0.8,4.1,2.3,5.6
			c1.6,1.6,3.4,2.3,5.6,2.3h26v-7.6h-26c-0.3,0-0.4-0.1-0.4-0.4v-5h26.4V26.6c0-2.2-0.8-4.1-2.3-5.6C74.2,19.4,72.4,18.8,70.2,18.8z
			 M70.6,31.6H51.7v-5c0-0.3,0.1-0.4,0.4-0.4h18.1c0.3,0,0.4,0.1,0.4,0.4V31.6z"/>
        <polygon class="st0" points="89.9,18.8 81.1,18.8 94.2,42.4 98.5,34.7 		"/>
        <polygon class="st1" points="115.2,20.6 103,43 103,42.9 98.8,50.8 99.5,52.2 106.5,52.2 124.9,18.8 116.2,18.8 		"/>
        <path class="st0" d="M155.4,18.8h-20.1c-1.9,0-3.6,0.7-4.9,2c-1.4,1.4-2,3-2,4.9v5.2c0,1.9,0.7,3.6,2,4.9c1.4,1.4,3,2,4.9,2h20.1
			c0.6,0,1.1,0.2,1.6,0.7c0.4,0.4,0.7,1,0.7,1.6v5.1c0,0.6-0.2,1.1-0.7,1.6c-0.4,0.4-1,0.7-1.6,0.7h-20.1c-0.6,0-1.1-0.2-1.6-0.7
			c-0.4-0.4-0.7-1-0.7-1.6v-0.5h-4.7v0.5c0,1.9,0.7,3.6,2,4.9c1.4,1.4,3,2,4.9,2h20.1c2,0,3.6-0.7,5-2c1.4-1.4,2-3,2-4.9V40
			c0-1.9-0.7-3.6-2-4.9c-1.4-1.4-3-2-5-2h-20c-0.6,0-1.1-0.2-1.6-0.7c-0.4-0.4-0.7-1-0.7-1.6v-5.1c0-0.6,0.2-1.1,0.7-1.6
			c0.4-0.4,1-0.7,1.6-0.7h20.1c0.6,0,1.1,0.2,1.6,0.7c0.4,0.4,0.7,1,0.7,1.6v0.5h4.8v-0.5c0-1.9-0.7-3.6-2-4.9
			C159,19.4,157.3,18.8,155.4,18.8z"/>
        <path class="st0" d="M172.9,7.8h-4.7v37.5c0,1.9,0.7,3.6,2,4.9c1.3,1.4,3,2,5,2h12.2v-4.7h-12.2c-0.6,0-1.1-0.2-1.6-0.7
			c-0.4-0.4-0.7-1-0.7-1.6V23.4h14.5v-4.7h-14.5V7.8z"/>
        <path class="st0" d="M218.8,18.8h-27.1v4.7h27.1c0.6,0,1.1,0.2,1.6,0.7c0.4,0.4,0.7,1,0.7,1.6v7.4h-29.3v12.1c0,1.9,0.7,3.6,2,4.9
			c1.4,1.4,3,2,4.9,2h27.1V25.8c0-1.9-0.7-3.6-2-4.9C222.5,19.4,220.8,18.8,218.8,18.8z M221.1,47.4h-22.3c-0.6,0-1.1-0.2-1.6-0.7
			c-0.4-0.4-0.7-1-0.7-1.6v-7.3h24.6V47.4z"/>
        <path class="st0" d="M233.9,9.8c-1.3,1.3-2,3-2,5v37.5h4.7V23.4h14.5v-4.7h-14.5v-4c0-0.6,0.2-1.1,0.7-1.6c0.4-0.4,1-0.7,1.6-0.7
			h12.2V7.7h-12.2C236.9,7.8,235.2,8.4,233.9,9.8z"/>
        <path class="st0" d="M260.8,13.1c0.4-0.4,1-0.7,1.6-0.7h12.2V7.7h-12.2c-2,0-3.6,0.7-5,2c-1.3,1.3-2,3-2,5v37.5h4.7V23.4h14.5
			v-4.7h-14.5v-4C260.1,14.1,260.3,13.6,260.8,13.1z"/>
	</g>
</g>
</svg>
