<svg width="260" height="69" viewBox="0 0 260 69" fill="none" xmlns="http://www.w3.org/2000/svg">
    <path d="M26.7 11.1001H8C5.8 11.1001 3.9 11.9001 2.3 13.4001C0.7 15.0001 0 16.8001 0 19.1001V36.7001C0 38.9001 0.8 40.8001 2.3 42.4001C3.9 44.0001 5.7 44.7001 8 44.7001H34.2V0.100098H26.6V11.1001H26.7ZM26.7 36.7001C26.7 37.0001 26.6 37.1001 26.3 37.1001H8C7.8 37.1001 7.7 37.0001 7.7 36.7001V19.1001C7.7 18.8001 7.8 18.7001 8 18.7001H26.2C26.5 18.7001 26.6 18.8001 26.6 19.1001V36.7001H26.7Z" fill="#B3B3B3"/>
    <path d="M65.2 11.1001H47C44.8 11.1001 42.9 11.9001 41.3 13.4001C39.7 15.0001 39 16.8001 39 19.1001V36.7001C39 38.9001 39.8 40.8001 41.3 42.4001C42.9 44.0001 44.7 44.7001 47 44.7001H73.1V37.1001H47C46.7 37.1001 46.6 37.0001 46.6 36.7001V31.7001H73.2V19.1001C73.2 16.9001 72.4 15.0001 70.9 13.4001C69.2 11.9001 67.4 11.1001 65.2 11.1001ZM65.6 24.1001H46.6V19.1001C46.6 18.8001 46.7 18.7001 47 18.7001H65.1C65.4 18.7001 65.5 18.8001 65.5 19.1001V24.1001H65.6Z" fill="#B3B3B3"/>
    <path d="M81.71 11.1001H73.01L86.11 35.0001L90.41 27.1001L81.71 11.1001Z" fill="#B3B3B3"/>
    <path d="M106.326 13.0001L94.0257 35.5001L89.8257 43.3001L90.6257 44.7001H97.5257L116.126 11.1001H107.326L106.326 13.0001Z" fill="#B3B3B3"/>
    <path d="M145.162 11.1001H124.962C123.062 11.1001 121.362 11.8001 119.962 13.2001C118.562 14.6001 117.862 16.2001 117.862 18.2001V23.4001C117.862 25.3001 118.562 27.0001 119.962 28.4001C121.362 29.8001 122.962 30.5001 124.962 30.5001H145.162C145.762 30.5001 146.262 30.7001 146.762 31.2001C147.162 31.6001 147.462 32.2001 147.462 32.8001V38.0001C147.462 38.6001 147.262 39.2001 146.762 39.6001C146.362 40.0001 145.762 40.3001 145.162 40.3001H124.962C124.362 40.3001 123.762 40.1001 123.362 39.6001C122.962 39.2001 122.662 38.6001 122.662 38.0001V37.5001H117.862V38.0001C117.862 39.9001 118.562 41.6001 119.962 43.0001C121.362 44.4001 122.962 45.1001 124.962 45.1001H145.162C147.162 45.1001 148.762 44.4001 150.162 43.0001C151.562 41.6001 152.262 40.0001 152.262 38.0001V32.8001C152.262 30.9001 151.562 29.2001 150.162 27.8001C148.762 26.4001 147.162 25.7001 145.162 25.7001H124.962C124.362 25.7001 123.762 25.5001 123.362 25.0001C122.962 24.6001 122.662 24.0001 122.662 23.4001V18.2001C122.662 17.6001 122.862 17.1001 123.362 16.6001C123.762 16.2001 124.362 15.9001 124.962 15.9001H145.162C145.762 15.9001 146.262 16.1001 146.762 16.6001C147.162 17.0001 147.462 17.6001 147.462 18.2001V18.7001H152.262V18.2001C152.262 16.3001 151.562 14.6001 150.162 13.2001C148.862 11.8001 147.162 11.1001 145.162 11.1001Z" fill="#B3B3B3"/>
    <path d="M161.404 0.100098H156.604V37.7001C156.604 39.6001 157.304 41.3001 158.604 42.7001C160.004 44.1001 161.604 44.8001 163.604 44.8001H175.904V40.0001H163.604C163.004 40.0001 162.404 39.8001 162.004 39.3001C161.604 38.9001 161.304 38.3001 161.304 37.7001V15.9001H175.904V11.1001H161.304V0.100098H161.404Z" fill="#B3B3B3"/>
    <path d="M206.098 11.1001H178.898V15.9001H206.098C206.698 15.9001 207.198 16.1001 207.698 16.6001C208.098 17.0001 208.398 17.6001 208.398 18.2001V25.6001H178.898V37.8001C178.898 39.7001 179.598 41.4001 180.998 42.8001C182.398 44.2001 183.998 44.9001 185.998 44.9001H213.198V18.1001C213.198 16.2001 212.498 14.5001 211.098 13.1001C209.698 11.8001 208.098 11.1001 206.098 11.1001ZM208.398 40.0001H185.998C185.398 40.0001 184.798 39.8001 184.398 39.3001C183.998 38.9001 183.698 38.3001 183.698 37.7001V30.3001H208.398V40.0001Z" fill="#B3B3B3"/>
    <path d="M219 2.1C217.6 3.5 217 5.1 217 7.1V44.7H221.8V15.9H236.4V11.1H221.8V7.1C221.8 6.5 222 6 222.5 5.5C222.9 5.1 223.5 4.8 224.1 4.8H236.4V0H224.1C222 0.100002 220.4 0.800001 219 2.1Z" fill="#B3B3B3"/>
    <path d="M246 5.5C246.4 5.1 247 4.8 247.6 4.8H259.9V0H247.6C245.6 0 244 0.700001 242.6 2C241.2 3.4 240.6 5 240.6 7V44.6H245.4V15.9H260V11.1H245.4V7.1C245.4 6.5 245.6 5.9 246 5.5Z" fill="#B3B3B3"/>
    <path d="M0 63.0033V58.8033C0 57.3033 1.2 56.2033 2.6 56.2033H6.4V53.9033C6.4 53.6033 6.6 53.4033 6.9 53.4033H7.2C7.4 53.4033 7.5 53.5033 7.5 53.7033V65.5033C7.5 65.7033 7.4 65.8033 7.2 65.8033H2.7C1.2 65.7033 0 64.5033 0 63.0033ZM1.1 58.8033V63.0033C1.1 63.9033 1.8 64.6033 2.7 64.6033H6.4V57.2033H2.7C1.8 57.2033 1.1 57.9033 1.1 58.8033Z" fill="#B3B3B3"/>
    <path d="M11.6001 63.0031V58.8031C11.6001 57.3031 12.8001 56.2031 14.2001 56.2031H16.4001C17.9001 56.2031 19.1001 57.4031 19.1001 58.8031V60.9031C19.1001 61.2031 18.9001 61.4031 18.6001 61.4031H12.8001V63.0031C12.8001 63.9031 13.5001 64.6031 14.4001 64.6031H16.4001C17.0001 64.6031 17.6001 64.2031 17.8001 63.7031C17.8001 63.6031 17.9001 63.5031 18.0001 63.5031H18.6001C18.8001 63.5031 18.9001 63.7031 18.9001 63.9031C18.7001 64.3031 18.5001 64.7031 18.1001 65.0031C17.6001 65.4031 17.0001 65.7031 16.4001 65.7031H14.3001C12.8001 65.7031 11.6001 64.5031 11.6001 63.0031ZM12.7001 58.8031V60.4031H18.0001V58.8031C18.0001 57.9031 17.3001 57.2031 16.4001 57.2031H14.3001C13.4001 57.2031 12.7001 57.9031 12.7001 58.8031Z" fill="#B3B3B3"/>
    <path d="M25.6999 65.3033L22.3999 56.5033C22.2999 56.3033 22.4999 56.1033 22.6999 56.1033H23.0999C23.2999 56.1033 23.4999 56.2033 23.5999 56.4033L26.4999 64.4033L29.3999 56.4033C29.4999 56.2033 29.6999 56.1033 29.8999 56.1033H30.2999C30.4999 56.1033 30.5999 56.3033 30.5999 56.5033L27.3999 65.3033C27.2999 65.5033 27.0999 65.6033 26.8999 65.6033H26.2999C25.8999 65.7033 25.6999 65.5033 25.6999 65.3033Z" fill="#B3B3B3"/>
    <path d="M33.8999 63.0031V58.8031C33.8999 57.3031 35.0999 56.2031 36.4999 56.2031H38.5999C40.0999 56.2031 41.2999 57.4031 41.2999 58.8031V60.9031C41.2999 61.2031 41.0999 61.4031 40.7999 61.4031H34.9999V63.0031C34.9999 63.9031 35.6999 64.6031 36.5999 64.6031H38.6999C39.2999 64.6031 39.8999 64.2031 40.0999 63.7031C40.0999 63.6031 40.1999 63.5031 40.2999 63.5031H40.8999C41.0999 63.5031 41.1999 63.7031 41.1999 63.9031C40.9999 64.3031 40.7999 64.7031 40.3999 65.0031C39.8999 65.4031 39.2999 65.7031 38.6999 65.7031H36.5999C35.0999 65.7031 33.8999 64.5031 33.8999 63.0031ZM34.9999 58.8031V60.4031H40.2999V58.8031C40.2999 57.9031 39.5999 57.2031 38.6999 57.2031H36.5999C35.6999 57.2031 34.9999 57.9031 34.9999 58.8031Z" fill="#B3B3B3"/>
    <path d="M45.5 53.6032C45.5 53.4032 45.6 53.3032 45.8 53.3032H46.1C46.4 53.3032 46.6 53.5032 46.6 53.8032V65.4032C46.6 65.6032 46.5 65.7032 46.3 65.7032H45.8C45.6 65.7032 45.5 65.6032 45.5 65.4032V53.6032Z" fill="#B3B3B3"/>
    <path d="M48.7534 63.0031V58.8031C48.7534 57.3031 49.9534 56.2031 51.3534 56.2031H53.4534C54.9534 56.2031 56.1534 57.4031 56.1534 58.8031V63.0031C56.1534 64.5031 54.9534 65.6031 53.4534 65.6031H51.3534C49.9534 65.7031 48.7534 64.5031 48.7534 63.0031ZM49.7534 58.8031V63.0031C49.7534 63.9031 50.4534 64.6031 51.3534 64.6031H53.4534C54.3534 64.6031 55.0534 63.9031 55.0534 63.0031V58.8031C55.0534 57.9031 54.3534 57.2031 53.4534 57.2031H51.3534C50.4534 57.2031 49.7534 57.9031 49.7534 58.8031Z" fill="#B3B3B3"/>
    <path d="M59.8881 56.4033C59.8881 56.3033 59.9881 56.1033 60.1881 56.1033H64.6881C66.1881 56.1033 67.3881 57.3033 67.3881 58.7033V62.9033C67.3881 64.4033 66.1881 65.5033 64.6881 65.5033H60.8881V67.8033C60.8881 68.1033 60.6881 68.3033 60.3881 68.3033H60.0881C59.8881 68.3033 59.7881 68.2033 59.7881 68.0033V56.4033H59.8881ZM64.5881 64.6033C65.4881 64.6033 66.1881 63.9033 66.1881 63.0033V58.8033C66.1881 57.9033 65.4881 57.2033 64.5881 57.2033H60.8881V64.6033H64.5881V64.6033Z" fill="#B3B3B3"/>
    <path d="M71.0186 63.0031V58.8031C71.0186 57.3031 72.2186 56.2031 73.6186 56.2031H75.7186C77.2186 56.2031 78.4185 57.4031 78.4185 58.8031V60.9031C78.4185 61.2031 78.2186 61.4031 77.9185 61.4031H72.1185V63.0031C72.1185 63.9031 72.8185 64.6031 73.7185 64.6031H75.8185C76.4185 64.6031 77.0185 64.2031 77.2185 63.7031C77.2185 63.6031 77.3185 63.5031 77.4185 63.5031H78.0185C78.2185 63.5031 78.3185 63.7031 78.3185 63.9031C78.1185 64.3031 77.9185 64.7031 77.5185 65.0031C77.0185 65.4031 76.4185 65.7031 75.8185 65.7031H73.7185C72.1186 65.7031 71.0186 64.5031 71.0186 63.0031ZM72.0186 58.8031V60.4031H77.3186V58.8031C77.3186 57.9031 76.6186 57.2031 75.7186 57.2031H73.6186C72.7186 57.2031 72.0186 57.9031 72.0186 58.8031Z" fill="#B3B3B3"/>
    <path d="M82.1928 58.8031C82.1928 57.3031 83.3928 56.2031 84.7928 56.2031H86.2928C86.3928 56.2031 86.5928 56.3031 86.5928 56.5031V56.8031C86.5928 57.1031 86.2928 57.3031 86.0928 57.3031H84.7928C83.8928 57.3031 83.1928 58.0031 83.1928 58.9031V65.5031C83.1928 65.6031 83.0928 65.8031 82.8928 65.8031H82.3928C82.1928 65.8031 82.0928 65.7031 82.0928 65.5031V58.8031H82.1928Z" fill="#B3B3B3"/>
    <path d="M89.2517 65.2031C89.2517 64.9031 89.4517 64.7031 89.7517 64.7031H93.9517C94.3517 64.7031 94.8517 64.5031 95.1517 64.2031C95.4517 63.9031 95.6517 63.5031 95.5517 63.0031C95.5517 62.6031 95.3517 62.2031 95.0517 61.9031C94.7517 61.6031 94.3517 61.5031 93.9517 61.5031H91.8517C91.1517 61.5031 90.5517 61.2031 90.0517 60.7031C89.5517 60.2031 89.2517 59.6031 89.2517 58.9031C89.2517 58.2031 89.5517 57.5031 90.0517 57.0031C90.5517 56.5031 91.2517 56.2031 91.9517 56.2031H95.5517C95.7517 56.2031 95.8517 56.3031 95.8517 56.5031V56.8031C95.8517 57.1031 95.6517 57.3031 95.3517 57.3031H91.9517C91.5517 57.3031 91.1517 57.5031 90.8517 57.8031C90.5517 58.1031 90.3517 58.5031 90.4517 59.0031C90.4517 59.4031 90.6517 59.8031 90.9517 60.1031C91.2517 60.4031 91.6517 60.5031 92.0517 60.5031H94.0517C94.7517 60.5031 95.4517 60.8031 95.9517 61.3031C96.4517 61.8031 96.7517 62.5031 96.7517 63.2031C96.7517 63.9031 96.4517 64.5031 95.9517 65.0031C95.4517 65.5031 94.7517 65.8031 94.0517 65.8031H89.5517C89.3517 65.8031 89.2517 65.7031 89.2517 65.5031V65.2031H89.2517Z" fill="#B3B3B3"/>
    <path d="M107.011 63.0031V58.8031C107.011 57.3031 108.211 56.2031 109.611 56.2031H111.711C112.311 56.2031 113.011 56.4031 113.411 56.8031C113.811 57.1031 114.011 57.5031 114.211 57.9031C114.311 58.1031 114.111 58.3031 113.911 58.3031H113.311C113.211 58.3031 113.111 58.2031 113.011 58.1031C112.711 57.6031 112.211 57.2031 111.611 57.2031H109.511C108.611 57.2031 107.911 57.9031 107.911 58.8031V63.0031C107.911 63.9031 108.611 64.6031 109.511 64.6031H111.611C112.211 64.6031 112.811 64.2031 113.011 63.7031C113.011 63.6031 113.111 63.5031 113.211 63.5031H113.811C114.011 63.5031 114.111 63.7031 114.111 63.9031C113.911 64.3031 113.711 64.7031 113.311 65.0031C112.811 65.4031 112.211 65.7031 111.611 65.7031H109.511C108.211 65.7031 107.011 64.5031 107.011 63.0031Z" fill="#B3B3B3"/>
    <path d="M117.469 63.0031V58.8031C117.469 57.3031 118.669 56.2031 120.069 56.2031H122.169C123.669 56.2031 124.869 57.4031 124.869 58.8031V63.0031C124.869 64.5031 123.669 65.6031 122.169 65.6031H120.069C118.669 65.7031 117.469 64.5031 117.469 63.0031ZM118.569 58.8031V63.0031C118.569 63.9031 119.269 64.6031 120.169 64.6031H122.269C123.169 64.6031 123.869 63.9031 123.869 63.0031V58.8031C123.869 57.9031 123.169 57.2031 122.269 57.2031H120.169C119.269 57.2031 118.569 57.9031 118.569 58.8031Z" fill="#B3B3B3"/>
    <path d="M142.269 58.8033V65.4033C142.269 65.6033 142.169 65.7033 141.969 65.7033H141.469C141.269 65.7033 141.169 65.6033 141.169 65.4033V58.8033C141.169 57.9033 140.469 57.2033 139.569 57.2033H137.469C136.569 57.2033 135.869 57.9033 135.869 58.8033V65.4033C135.869 65.6033 135.769 65.7033 135.569 65.7033H135.069C134.869 65.7033 134.769 65.6033 134.769 65.4033V58.8033C134.769 57.9033 134.069 57.2033 133.169 57.2033H129.469V65.4033C129.469 65.6033 129.369 65.7033 129.169 65.7033H128.669C128.469 65.7033 128.369 65.6033 128.369 65.4033V56.4033C128.369 56.2033 128.469 56.1033 128.669 56.1033H133.169C134.069 56.1033 134.769 56.5033 135.269 57.2033C135.769 56.6033 136.469 56.2033 137.369 56.1033H139.469C141.069 56.2033 142.269 57.4033 142.269 58.8033Z" fill="#B3B3B3"/>
    <path d="M159.429 58.8033V65.4033C159.429 65.6033 159.329 65.7033 159.129 65.7033H158.629C158.429 65.7033 158.329 65.6033 158.329 65.4033V58.8033C158.329 57.9033 157.629 57.2033 156.729 57.2033H154.629C153.729 57.2033 153.029 57.9033 153.029 58.8033V65.4033C153.029 65.6033 152.929 65.7033 152.729 65.7033H152.229C152.029 65.7033 151.929 65.6033 151.929 65.4033V58.8033C151.929 57.9033 151.229 57.2033 150.329 57.2033H146.629V65.4033C146.629 65.6033 146.529 65.7033 146.329 65.7033H145.829C145.629 65.7033 145.529 65.6033 145.529 65.4033V56.4033C145.529 56.2033 145.629 56.1033 145.829 56.1033H150.329C151.229 56.1033 151.929 56.5033 152.429 57.2033C152.929 56.6033 153.629 56.2033 154.529 56.1033H156.629C158.229 56.2033 159.429 57.4033 159.429 58.8033Z" fill="#B3B3B3"/>
    <path d="M163.052 63.0033V56.4033C163.052 56.3033 163.152 56.1033 163.352 56.1033H163.652C163.952 56.1033 164.152 56.3033 164.152 56.6033V62.9033C164.152 63.8033 164.852 64.5033 165.752 64.5033H167.852C168.752 64.5033 169.452 63.8033 169.452 62.9033V56.6033C169.452 56.3033 169.652 56.1033 169.952 56.1033H170.252C170.452 56.1033 170.552 56.2033 170.552 56.4033V63.0033C170.552 64.5033 169.352 65.6033 167.852 65.6033H165.752C164.252 65.7033 163.052 64.5033 163.052 63.0033Z" fill="#B3B3B3"/>
    <path d="M180.585 58.8033C180.585 57.9033 179.885 57.2033 178.985 57.2033H175.285V65.4033C175.285 65.6033 175.185 65.7033 174.985 65.7033H174.485C174.285 65.7033 174.185 65.6033 174.185 65.4033V56.4033C174.185 56.2033 174.285 56.1033 174.485 56.1033H178.985C180.485 56.1033 181.685 57.3033 181.685 58.8033V65.4033C181.685 65.6033 181.585 65.7033 181.385 65.7033H180.885C180.685 65.7033 180.585 65.6033 180.585 65.4033V58.8033H180.585Z" fill="#B3B3B3"/>
    <path d="M185.502 53.7033C185.502 53.5033 185.602 53.4033 185.802 53.4033H186.102C186.402 53.4033 186.602 53.6033 186.602 53.9033V54.2033C186.602 54.4033 186.502 54.5033 186.302 54.5033H185.802C185.602 54.5033 185.502 54.4033 185.502 54.2033V53.7033ZM185.502 56.4033C185.502 56.2033 185.602 56.1033 185.802 56.1033H186.302C186.502 56.1033 186.602 56.2033 186.602 56.4033V65.4033C186.602 65.6033 186.502 65.7033 186.302 65.7033H185.802C185.602 65.7033 185.502 65.6033 185.502 65.4033V56.4033Z" fill="#B3B3B3"/>
    <path d="M190.497 63.0031V54.5031C190.497 54.4031 190.597 54.2031 190.797 54.2031H191.297C191.497 54.2031 191.597 54.3031 191.597 54.5031V56.1031H193.997C194.297 56.1031 194.497 56.3031 194.497 56.6031V56.9031C194.497 57.0031 194.397 57.2031 194.197 57.2031H191.497V63.0031C191.497 63.9031 192.197 64.6031 193.097 64.6031H194.397C194.697 64.6031 194.897 64.9031 194.897 65.1031V65.4031C194.897 65.5031 194.797 65.7031 194.597 65.7031H193.097C191.697 65.7031 190.497 64.5031 190.497 63.0031Z" fill="#B3B3B3"/>
    <path d="M200.983 66.0033L197.483 56.5033C197.383 56.3033 197.583 56.1033 197.783 56.1033H198.183C198.383 56.1033 198.583 56.2033 198.683 56.4033L201.583 64.4033L204.483 56.4033C204.583 56.2033 204.783 56.1033 204.983 56.1033H205.383C205.583 56.1033 205.683 56.3033 205.683 56.5033L201.383 68.2033C201.283 68.4033 201.083 68.6033 200.883 68.6033H200.483C200.283 68.6033 200.183 68.4033 200.283 68.2033L200.983 66.0033Z" fill="#B3B3B3"/>
    <path d="M214.4 63.0031V58.8031C214.4 57.3031 215.6 56.2031 217 56.2031H219.1C219.7 56.2031 220.4 56.4031 220.8 56.8031C221.2 57.1031 221.4 57.5031 221.6 57.9031C221.7 58.1031 221.5 58.3031 221.3 58.3031H220.8C220.7 58.3031 220.6 58.2031 220.5 58.1031C220.2 57.6031 219.7 57.2031 219.1 57.2031H217C216.1 57.2031 215.4 57.9031 215.4 58.8031V63.0031C215.4 63.9031 216.1 64.6031 217 64.6031H219.1C219.7 64.6031 220.3 64.2031 220.5 63.7031C220.5 63.6031 220.6 63.5031 220.7 63.5031H221.3C221.5 63.5031 221.6 63.7031 221.6 63.9031C221.4 64.3031 221.2 64.7031 220.8 65.0031C220.3 65.4031 219.7 65.7031 219.1 65.7031H217C215.6 65.7031 214.4 64.5031 214.4 63.0031Z" fill="#B3B3B3"/>
    <path d="M225.3 58.8031C225.3 57.3031 226.5 56.2031 227.9 56.2031H229.4C229.5 56.2031 229.7 56.3031 229.7 56.5031V56.8031C229.7 57.1031 229.4 57.3031 229.2 57.3031H227.9C227 57.3031 226.3 58.0031 226.3 58.9031V65.5031C226.3 65.6031 226.2 65.8031 226 65.8031H225.5C225.3 65.8031 225.2 65.7031 225.2 65.5031V58.8031H225.3Z" fill="#B3B3B3"/>
    <path d="M233.1 63.0031V58.8031C233.1 57.3031 234.3 56.2031 235.7 56.2031H237.8C239.3 56.2031 240.5 57.4031 240.5 58.8031V60.9031C240.5 61.2031 240.3 61.4031 240 61.4031H234.2V63.0031C234.2 63.9031 234.9 64.6031 235.8 64.6031H237.9C238.5 64.6031 239.1 64.2031 239.3 63.7031C239.3 63.6031 239.4 63.5031 239.5 63.5031H240.1C240.3 63.5031 240.4 63.7031 240.4 63.9031C240.2 64.3031 240 64.7031 239.6 65.0031C239.1 65.4031 238.5 65.7031 237.9 65.7031H235.8C234.3 65.7031 233.1 64.5031 233.1 63.0031ZM234.2 58.8031V60.4031H239.5V58.8031C239.5 57.9031 238.8 57.2031 237.9 57.2031H235.8C234.9 57.2031 234.2 57.9031 234.2 58.8031Z" fill="#B3B3B3"/>
    <path d="M244.7 63.0031V54.5031C244.7 54.4031 244.8 54.2031 245 54.2031H245.5C245.7 54.2031 245.8 54.3031 245.8 54.5031V56.1031H248.2C248.5 56.1031 248.7 56.3031 248.7 56.6031V56.9031C248.7 57.0031 248.6 57.2031 248.4 57.2031H245.8V63.0031C245.8 63.9031 246.5 64.6031 247.4 64.6031H248.7C249 64.6031 249.2 64.9031 249.2 65.1031V65.4031C249.2 65.5031 249.1 65.7031 248.9 65.7031H247.4C245.9 65.7031 244.7 64.5031 244.7 63.0031Z" fill="#B3B3B3"/>
    <path d="M252.5 63.0031V58.8031C252.5 57.3031 253.7 56.2031 255.1 56.2031H257.2C258.7 56.2031 259.9 57.4031 259.9 58.8031V60.9031C259.9 61.2031 259.7 61.4031 259.4 61.4031H253.6V63.0031C253.6 63.9031 254.3 64.6031 255.2 64.6031H257.3C257.9 64.6031 258.5 64.2031 258.7 63.7031C258.7 63.6031 258.8 63.5031 258.9 63.5031H259.5C259.7 63.5031 259.8 63.7031 259.8 63.9031C259.6 64.3031 259.4 64.7031 259 65.0031C258.5 65.4031 257.9 65.7031 257.3 65.7031H255.2C253.7 65.7031 252.5 64.5031 252.5 63.0031ZM253.6 58.8031V60.4031H258.9V58.8031C258.9 57.9031 258.2 57.2031 257.3 57.2031H255.2C254.3 57.2031 253.6 57.9031 253.6 58.8031Z" fill="#B3B3B3"/>
</svg>
