<svg enable-background="new 0 0 283.5 113.4" version="1.1" viewBox="0 0 283.5 113.4" xml:space="preserve" xmlns="http://www.w3.org/2000/svg">
								<path class="st0" d="m35.3 32.2h-18.7c-2.2 0-4.1 0.8-5.7 2.3-1.6 1.6-2.3 3.4-2.3 5.7v17.6c0 2.2 0.8 4.1 2.3 5.7 1.6 1.6 3.4 2.3 5.7 2.3h26.2v-44.6h-7.6v11zm0 25.6c0 0.3-0.1 0.4-0.4 0.4h-18.3c-0.2 0-0.3-0.1-0.3-0.4v-17.6c0-0.3 0.1-0.4 0.3-0.4h18.2c0.3 0 0.4 0.1 0.4 0.4v17.6z"/>
    <path class="st0" d="m73.8 32.2h-18.2c-2.2 0-4.1 0.8-5.7 2.3-1.6 1.6-2.3 3.4-2.3 5.7v17.6c0 2.2 0.8 4.1 2.3 5.7 1.6 1.6 3.4 2.3 5.7 2.3h26.1v-7.6h-26.1c-0.3 0-0.4-0.1-0.4-0.4v-5h26.6v-12.6c0-2.2-0.8-4.1-2.3-5.7-1.7-1.5-3.5-2.3-5.7-2.3zm0.4 13h-19v-5c0-0.3 0.1-0.4 0.4-0.4h18.1c0.3 0 0.4 0.1 0.4 0.4v5z"/>
    <polygon class="st0" points="93.5 32.2 84.8 32.2 97.9 56.1 102.2 48.2"/>
    <polygon class="st0" points="119 34.1 106.7 56.6 106.7 56.6 102.5 64.4 103.3 65.8 110.2 65.8 128.8 32.2 120 32.2"/>
    <path class="st0" d="m159.3 32.2h-20.2c-1.9 0-3.6 0.7-5 2.1s-2.1 3-2.1 5v5.2c0 1.9 0.7 3.6 2.1 5s3 2.1 5 2.1h20.2c0.6 0 1.1 0.2 1.6 0.7 0.4 0.4 0.7 1 0.7 1.6v5.2c0 0.6-0.2 1.2-0.7 1.6-0.4 0.4-1 0.7-1.6 0.7h-20.2c-0.6 0-1.2-0.2-1.6-0.7-0.4-0.4-0.7-1-0.7-1.6v-0.5h-4.8v0.5c0 1.9 0.7 3.6 2.1 5s3 2.1 5 2.1h20.2c2 0 3.6-0.7 5-2.1s2.1-3 2.1-5v-5.2c0-1.9-0.7-3.6-2.1-5s-3-2.1-5-2.1h-20.2c-0.6 0-1.2-0.2-1.6-0.7-0.4-0.4-0.7-1-0.7-1.6v-5.2c0-0.6 0.2-1.1 0.7-1.6 0.4-0.4 1-0.7 1.6-0.7h20.2c0.6 0 1.1 0.2 1.6 0.7 0.4 0.4 0.7 1 0.7 1.6v0.5h4.8v-0.5c0-1.9-0.7-3.6-2.1-5-1.3-1.4-3-2.1-5-2.1z"/>
    <path class="st0" d="m176.9 21.2h-4.8v37.6c0 1.9 0.7 3.6 2 5 1.4 1.4 3 2.1 5 2.1h12.3v-4.8h-12.3c-0.6 0-1.2-0.2-1.6-0.7-0.4-0.4-0.7-1-0.7-1.6v-21.8h14.6v-4.8h-14.6v-11z"/>
    <path class="st0" d="m223.1 32.2h-27.2v4.8h27.2c0.6 0 1.1 0.2 1.6 0.7 0.4 0.4 0.7 1 0.7 1.6v7.4h-29.5v12.2c0 1.9 0.7 3.6 2.1 5s3 2.1 5 2.1h27.2v-26.8c0-1.9-0.7-3.6-2.1-5-1.4-1.3-3-2-5-2zm2.3 28.9h-22.4c-0.6 0-1.2-0.2-1.6-0.7-0.4-0.4-0.7-1-0.7-1.6v-7.4h24.7v9.7z"/>
    <path class="st0" d="m238.2 23.2c-1.4 1.4-2 3-2 5v37.6h4.8v-28.8h14.6v-4.8h-14.6v-4c0-0.6 0.2-1.1 0.7-1.6 0.4-0.4 1-0.7 1.6-0.7h12.3v-4.8h-12.3c-2.1 0.1-3.7 0.8-5.1 2.1z"/>
    <path class="st0" d="m265.2 26.6c0.4-0.4 1-0.7 1.6-0.7h12.3v-4.8h-12.3c-2 0-3.6 0.7-5 2-1.4 1.4-2 3-2 5v37.6h4.8v-28.7h14.6v-4.8h-14.6v-4c0-0.6 0.2-1.2 0.6-1.6z"/>
    <path class="st0" d="m8.6 86.9v-4.2c0-1.5 1.2-2.6 2.6-2.6h3.8v-2.3c0-0.3 0.2-0.5 0.5-0.5h0.3c0.2 0 0.3 0.1 0.3 0.3v11.8c0 0.2-0.1 0.3-0.3 0.3h-4.5c-1.5-0.1-2.7-1.3-2.7-2.8zm1.1-4.2v4.2c0 0.9 0.7 1.6 1.6 1.6h3.7v-7.4h-3.7c-0.9 0-1.6 0.7-1.6 1.6z"/>
    <path class="st0" d="m20.2 86.9v-4.2c0-1.5 1.2-2.6 2.6-2.6h2.2c1.5 0 2.7 1.2 2.7 2.6v2.1c0 0.3-0.2 0.5-0.5 0.5h-5.8v1.6c0 0.9 0.7 1.6 1.6 1.6h2c0.6 0 1.2-0.4 1.4-0.9 0-0.1 0.1-0.2 0.2-0.2h0.6c0.2 0 0.3 0.2 0.3 0.4-0.2 0.4-0.4 0.8-0.8 1.1-0.5 0.4-1.1 0.7-1.7 0.7h-2.1c-1.5 0-2.7-1.2-2.7-2.7zm1.1-4.2v1.6h5.3v-1.6c0-0.9-0.7-1.6-1.6-1.6h-2.1c-0.9 0-1.6 0.7-1.6 1.6z"/>
    <path class="st0" d="m34.3 89.2-3.3-8.8c-0.1-0.2 0.1-0.4 0.3-0.4h0.4c0.2 0 0.4 0.1 0.5 0.3l2.9 8 2.9-8c0.1-0.2 0.3-0.3 0.5-0.3h0.4c0.2 0 0.3 0.2 0.3 0.4l-3.2 8.8c-0.1 0.2-0.3 0.3-0.5 0.3h-0.6c-0.4 0.1-0.6-0.1-0.6-0.3z"/>
    <path class="st0" d="m42.5 86.9v-4.2c0-1.5 1.2-2.6 2.6-2.6h2.1c1.5 0 2.7 1.2 2.7 2.6v2.1c0 0.3-0.2 0.5-0.5 0.5h-5.8v1.6c0 0.9 0.7 1.6 1.6 1.6h2.1c0.6 0 1.2-0.4 1.4-0.9 0-0.1 0.1-0.2 0.2-0.2h0.6c0.2 0 0.3 0.2 0.3 0.4-0.2 0.4-0.4 0.8-0.8 1.1-0.5 0.4-1.1 0.7-1.7 0.7h-2.1c-1.5 0-2.7-1.2-2.7-2.7zm1.1-4.2v1.6h5.3v-1.6c0-0.9-0.7-1.6-1.6-1.6h-2.1c-0.9 0-1.6 0.7-1.6 1.6z"/>
    <path class="st0" d="m54.1 77.5c0-0.2 0.1-0.3 0.3-0.3h0.3c0.3 0 0.5 0.2 0.5 0.5v11.6c0 0.2-0.1 0.3-0.3 0.3h-0.5c-0.2 0-0.3-0.1-0.3-0.3v-11.8z"/>
    <path class="st0" d="m59.4 86.9v-4.2c0-1.5 1.2-2.6 2.6-2.6h2.1c1.5 0 2.7 1.2 2.7 2.6v4.2c0 1.5-1.2 2.6-2.7 2.6h-2.1c-1.4 0.1-2.6-1.1-2.6-2.6zm1-4.2v4.2c0 0.9 0.7 1.6 1.6 1.6h2.1c0.9 0 1.6-0.7 1.6-1.6v-4.2c0-0.9-0.7-1.6-1.6-1.6h-2.1c-0.9 0-1.6 0.7-1.6 1.6z"/>
    <path class="st0" d="m71 80.3c0-0.1 0.1-0.3 0.3-0.3h4.5c1.5 0 2.7 1.2 2.7 2.6v4.2c0 1.5-1.2 2.6-2.7 2.6h-3.8v2.3c0 0.3-0.2 0.5-0.5 0.5h-0.3c-0.2 0-0.3-0.1-0.3-0.3v-11.6zm4.7 8.2c0.9 0 1.6-0.7 1.6-1.6v-4.2c0-0.9-0.7-1.6-1.6-1.6h-3.7v7.4h3.7z"/>
    <path class="st0" d="m82.6 86.9v-4.2c0-1.5 1.2-2.6 2.6-2.6h2.1c1.5 0 2.7 1.2 2.7 2.6v2.1c0 0.3-0.2 0.5-0.5 0.5h-5.8v1.6c0 0.9 0.7 1.6 1.6 1.6h2.1c0.6 0 1.2-0.4 1.4-0.9 0-0.1 0.1-0.2 0.2-0.2h0.6c0.2 0 0.3 0.2 0.3 0.4-0.2 0.4-0.4 0.8-0.8 1.1-0.5 0.4-1.1 0.7-1.7 0.7h-2.1c-1.6 0-2.7-1.2-2.7-2.7zm1-4.2v1.6h5.3v-1.6c0-0.9-0.7-1.6-1.6-1.6h-2.1c-0.9 0-1.6 0.7-1.6 1.6z"/>
    <path class="st0" d="m94.2 82.7c0-1.5 1.2-2.6 2.6-2.6h1.5c0.1 0 0.3 0.1 0.3 0.3v0.3c0 0.3-0.3 0.5-0.5 0.5h-1.3c-0.9 0-1.6 0.7-1.6 1.6v6.6c0 0.1-0.1 0.3-0.3 0.3h-0.5c-0.2 0-0.3-0.1-0.3-0.3v-6.7z"/>
    <path class="st0" d="m101.6 89.1c0-0.3 0.2-0.5 0.5-0.5h4.2c0.4 0 0.9-0.2 1.2-0.5s0.5-0.7 0.4-1.2c0-0.4-0.2-0.8-0.5-1.1s-0.7-0.4-1.1-0.4h-2.1c-0.7 0-1.3-0.3-1.8-0.8s-0.8-1.1-0.8-1.8 0.3-1.4 0.8-1.9 1.2-0.8 1.9-0.8h3.6c0.2 0 0.3 0.1 0.3 0.3v0.3c0 0.3-0.2 0.5-0.5 0.5h-3.4c-0.4 0-0.8 0.2-1.1 0.5s-0.5 0.7-0.4 1.2c0 0.4 0.2 0.8 0.5 1.1s0.7 0.4 1.1 0.4h2c0.7 0 1.4 0.3 1.9 0.8s0.8 1.2 0.8 1.9-0.3 1.3-0.8 1.8-1.2 0.8-1.9 0.8h-4.5c-0.2 0-0.3-0.1-0.3-0.3v-0.3z"/>
    <path class="st0" d="m120.1 86.9v-4.2c0-1.5 1.2-2.6 2.6-2.6h2.1c0.6 0 1.3 0.2 1.7 0.6 0.4 0.3 0.6 0.7 0.8 1.1 0.1 0.2-0.1 0.4-0.3 0.4h-0.6c-0.1 0-0.2-0.1-0.3-0.2-0.3-0.5-0.8-0.9-1.4-0.9h-2.1c-0.9 0-1.6 0.7-1.6 1.6v4.2c0 0.9 0.7 1.6 1.6 1.6h2.1c0.6 0 1.2-0.4 1.4-0.9 0-0.1 0.1-0.2 0.2-0.2h0.6c0.2 0 0.3 0.2 0.3 0.4-0.2 0.4-0.4 0.8-0.8 1.1-0.5 0.4-1.1 0.7-1.7 0.7h-2.1c-1.3 0-2.5-1.2-2.5-2.7z"/>
    <path class="st0" d="m131 86.9v-4.2c0-1.5 1.2-2.6 2.6-2.6h2.1c1.5 0 2.7 1.2 2.7 2.6v4.2c0 1.5-1.2 2.6-2.7 2.6h-2.1c-1.4 0.1-2.6-1.1-2.6-2.6zm1.1-4.2v4.2c0 0.9 0.7 1.6 1.6 1.6h2.1c0.9 0 1.6-0.7 1.6-1.6v-4.2c0-0.9-0.7-1.6-1.6-1.6h-2.1c-0.9 0-1.6 0.7-1.6 1.6z"/>
    <path class="st0" d="m156.4 82.7v6.6c0 0.2-0.1 0.3-0.3 0.3h-0.5c-0.2 0-0.3-0.1-0.3-0.3v-6.6c0-0.9-0.7-1.6-1.6-1.6h-2.1c-0.9 0-1.6 0.7-1.6 1.6v6.6c0 0.2-0.1 0.3-0.3 0.3h-0.5c-0.2 0-0.3-0.1-0.3-0.3v-6.6c0-0.9-0.7-1.6-1.6-1.6h-3.7v8.2c0 0.2-0.1 0.3-0.3 0.3h-0.5c-0.2 0-0.3-0.1-0.3-0.3v-9c0-0.2 0.1-0.3 0.3-0.3h4.5c0.9 0 1.6 0.4 2.1 1.1 0.5-0.6 1.2-1 2.1-1.1h2.1c1.6 0.1 2.8 1.3 2.8 2.7z"/>
    <path class="st0" d="m174.3 82.7v6.6c0 0.2-0.1 0.3-0.3 0.3h-0.5c-0.2 0-0.3-0.1-0.3-0.3v-6.6c0-0.9-0.7-1.6-1.6-1.6h-2.1c-0.9 0-1.6 0.7-1.6 1.6v6.6c0 0.2-0.1 0.3-0.3 0.3h-0.5c-0.2 0-0.3-0.1-0.3-0.3v-6.6c0-0.9-0.7-1.6-1.6-1.6h-3.7v8.2c0 0.2-0.1 0.3-0.3 0.3h-0.5c-0.2 0-0.3-0.1-0.3-0.3v-9c0-0.2 0.1-0.3 0.3-0.3h4.5c0.9 0 1.6 0.4 2.1 1.1 0.5-0.6 1.2-1 2.1-1.1h2.1c1.6 0.1 2.8 1.3 2.8 2.7z"/>
    <path class="st0" d="m178.5 86.9v-6.6c0-0.1 0.1-0.3 0.3-0.3h0.3c0.3 0 0.5 0.2 0.5 0.5v6.3c0 0.9 0.7 1.6 1.6 1.6h2.1c0.9 0 1.6-0.7 1.6-1.6v-6.3c0-0.3 0.2-0.5 0.5-0.5h0.3c0.2 0 0.3 0.1 0.3 0.3v6.6c0 1.5-1.2 2.6-2.7 2.6h-2.1c-1.5 0.1-2.7-1.1-2.7-2.6z"/>
    <path class="st0" d="m196.5 82.7c0-0.9-0.7-1.6-1.6-1.6h-3.7v8.2c0 0.2-0.1 0.3-0.3 0.3h-0.5c-0.2 0-0.3-0.1-0.3-0.3v-9c0-0.2 0.1-0.3 0.3-0.3h4.5c1.5 0 2.7 1.2 2.7 2.7v6.6c0 0.2-0.1 0.3-0.3 0.3h-0.5c-0.2 0-0.3-0.1-0.3-0.3v-6.6z"/>
    <path class="st0" d="m201.7 77.6c0-0.2 0.1-0.3 0.3-0.3h0.3c0.3 0 0.5 0.2 0.5 0.5v0.3c0 0.2-0.1 0.3-0.3 0.3h-0.5c-0.2 0-0.3-0.1-0.3-0.3v-0.5zm0 2.7c0-0.2 0.1-0.3 0.3-0.3h0.5c0.2 0 0.3 0.1 0.3 0.3v9c0 0.2-0.1 0.3-0.3 0.3h-0.5c-0.2 0-0.3-0.1-0.3-0.3v-9z"/>
    <path class="st0" d="m207 86.9v-8.5c0-0.1 0.1-0.3 0.3-0.3h0.5c0.2 0 0.3 0.1 0.3 0.3v1.6h2.4c0.3 0 0.5 0.2 0.5 0.5v0.3c0 0.1-0.1 0.3-0.3 0.3h-2.7v5.8c0 0.9 0.7 1.6 1.6 1.6h1.3c0.3 0 0.5 0.3 0.5 0.5v0.3c0 0.1-0.1 0.3-0.3 0.3h-1.5c-1.4 0-2.6-1.2-2.6-2.7z"/>
    <path class="st0" d="m217.9 89.9-3.5-9.5c-0.1-0.2 0.1-0.4 0.3-0.4h0.4c0.2 0 0.4 0.1 0.5 0.3l2.9 8 2.9-8c0.1-0.2 0.3-0.3 0.5-0.3h0.4c0.2 0 0.3 0.2 0.3 0.4l-4.3 11.7c-0.1 0.2-0.3 0.4-0.5 0.4h-0.4c-0.2 0-0.3-0.2-0.2-0.4l0.7-2.2z"/>
    <path class="st0" d="m233.6 86.9v-4.2c0-1.5 1.2-2.6 2.6-2.6h2.1c0.6 0 1.3 0.2 1.7 0.6 0.4 0.3 0.6 0.7 0.8 1.1 0.1 0.2-0.1 0.4-0.3 0.4h-0.5c-0.1 0-0.2-0.1-0.3-0.2-0.3-0.5-0.8-0.9-1.4-0.9h-2.1c-0.9 0-1.6 0.7-1.6 1.6v4.2c0 0.9 0.7 1.6 1.6 1.6h2.1c0.6 0 1.2-0.4 1.4-0.9 0-0.1 0.1-0.2 0.2-0.2h0.6c0.2 0 0.3 0.2 0.3 0.4-0.2 0.4-0.4 0.8-0.8 1.1-0.5 0.4-1.1 0.7-1.7 0.7h-2.1c-1.4 0-2.6-1.2-2.6-2.7z"/>
    <path class="st0" d="m244.5 82.7c0-1.5 1.2-2.6 2.6-2.6h1.5c0.1 0 0.3 0.1 0.3 0.3v0.3c0 0.3-0.3 0.5-0.5 0.5h-1.3c-0.9 0-1.6 0.7-1.6 1.6v6.6c0 0.1-0.1 0.3-0.3 0.3h-0.5c-0.2 0-0.3-0.1-0.3-0.3v-6.7z"/>
    <path class="st0" d="m252.3 86.9v-4.2c0-1.5 1.2-2.6 2.6-2.6h2.1c1.5 0 2.7 1.2 2.7 2.6v2.1c0 0.3-0.2 0.5-0.5 0.5h-5.8v1.6c0 0.9 0.7 1.6 1.6 1.6h2.1c0.6 0 1.2-0.4 1.4-0.9 0-0.1 0.1-0.2 0.2-0.2h0.6c0.2 0 0.3 0.2 0.3 0.4-0.2 0.4-0.4 0.8-0.8 1.1-0.5 0.4-1.1 0.7-1.7 0.7h-2.1c-1.5 0-2.7-1.2-2.7-2.7zm1.1-4.2v1.6h5.3v-1.6c0-0.9-0.7-1.6-1.6-1.6h-2.1c-0.9 0-1.6 0.7-1.6 1.6z"/>
    <path class="st0" d="m263.9 86.9v-8.5c0-0.1 0.1-0.3 0.3-0.3h0.5c0.2 0 0.3 0.1 0.3 0.3v1.6h2.4c0.3 0 0.5 0.2 0.5 0.5v0.3c0 0.1-0.1 0.3-0.3 0.3h-2.6v5.8c0 0.9 0.7 1.6 1.6 1.6h1.3c0.3 0 0.5 0.3 0.5 0.5v0.3c0 0.1-0.1 0.3-0.3 0.3h-1.5c-1.5 0-2.7-1.2-2.7-2.7z"/>
    <path class="st0" d="m271.7 86.9v-4.2c0-1.5 1.2-2.6 2.6-2.6h2.1c1.5 0 2.7 1.2 2.7 2.6v2.1c0 0.3-0.2 0.5-0.5 0.5h-5.8v1.6c0 0.9 0.7 1.6 1.6 1.6h2.1c0.6 0 1.2-0.4 1.4-0.9 0-0.1 0.1-0.2 0.2-0.2h0.6c0.2 0 0.3 0.2 0.3 0.4-0.2 0.4-0.4 0.8-0.8 1.1-0.5 0.4-1.1 0.7-1.7 0.7h-2.1c-1.5 0-2.7-1.2-2.7-2.7zm1.1-4.2v1.6h5.3v-1.6c0-0.9-0.7-1.6-1.6-1.6h-2.1c-0.9 0-1.6 0.7-1.6 1.6z"/>
						</svg>	